<?xml version="1.0" encoding="utf-8"?>
<!-- Generator: Adobe Illustrator 27.0.0, SVG Export Plug-In . SVG Version: 6.00 Build 0)  -->
<svg version="1.1" id="Layer_1" xmlns="http://www.w3.org/2000/svg" xmlns:xlink="http://www.w3.org/1999/xlink" x="0px" y="0px"
	 viewBox="0 0 80 80" style="enable-background:new 0 0 80 80;" xml:space="preserve">
<style type="text/css">
	.st0{fill:#C5A059;}
	.st1{font-family:'TimesNewRomanPS-BoldMT';}
	.st2{font-size:77.2596px;}
	.st3{enable-background:new    ;}
</style>
<text transform="matrix(1 0 0 1 4.3842 66.3664)" class="st0 st1 st2">IS</text>
<g class="st3">
	<path class="st0" d="M32.5,65v1.4H5.8V65h1.7c1.5,0,2.7-0.3,3.6-0.8c0.7-0.4,1.2-1,1.5-1.8c0.3-0.6,0.4-2.2,0.4-4.8V24
		c0-2.6-0.1-4.2-0.4-4.9s-0.8-1.2-1.7-1.7c-0.8-0.5-2-0.7-3.4-0.7H5.8v-1.4h26.7v1.4h-1.7c-1.5,0-2.7,0.3-3.6,0.8
		c-0.7,0.4-1.2,1-1.5,1.8c-0.3,0.6-0.4,2.2-0.4,4.8v33.6c0,2.6,0.1,4.2,0.4,4.9s0.9,1.2,1.7,1.7c0.8,0.5,2,0.7,3.4,0.7H32.5z"/>
	<path class="st0" d="M70.6,14L71,31.1h-1.5c-0.7-4.3-2.5-7.7-5.4-10.3s-5.9-3.9-9.3-3.9c-2.6,0-4.6,0.7-6.1,2.1
		c-1.5,1.4-2.2,2.9-2.2,4.7c0,1.1,0.3,2.1,0.8,3c0.7,1.2,1.9,2.4,3.5,3.5c1.2,0.8,3.9,2.3,8.2,4.4c6,2.9,10,5.7,12.1,8.3
		c2.1,2.6,3.1,5.6,3.1,9c0,4.3-1.7,8-5,11c-3.3,3.1-7.6,4.6-12.7,4.6c-1.6,0-3.1-0.2-4.6-0.5c-1.4-0.3-3.2-0.9-5.4-1.8
		c-1.2-0.5-2.2-0.8-3-0.8c-0.7,0-1.3,0.3-2.1,0.8c-0.7,0.5-1.3,1.3-1.8,2.3h-1.4V48.2h1.4c1.1,5.4,3.2,9.6,6.4,12.4
		c3.2,2.9,6.6,4.3,10.2,4.3c2.8,0,5.1-0.8,6.7-2.3c1.7-1.5,2.5-3.3,2.5-5.4c0-1.2-0.3-2.4-1-3.5c-0.6-1.1-1.6-2.2-2.9-3.2
		c-1.3-1-3.6-2.3-6.9-4c-4.7-2.3-8-4.2-10-5.8c-2-1.6-3.6-3.4-4.7-5.4c-1.1-2-1.6-4.2-1.6-6.6c0-4.1,1.5-7.5,4.5-10.4
		c3-2.9,6.8-4.3,11.3-4.3c1.7,0,3.3,0.2,4.8,0.6c1.2,0.3,2.6,0.9,4.3,1.7c1.7,0.8,2.9,1.2,3.6,1.2c0.7,0,1.2-0.2,1.5-0.6
		c0.4-0.4,0.7-1.4,1.1-2.9H70.6z"/>
</g>
</svg>
