<?xml version="1.0" encoding="UTF-8"?>
<svg id="Layer_2" data-name="Layer 2" xmlns="http://www.w3.org/2000/svg" viewBox="0 0 201.69 239.54">
  <defs>
    <style>
      .cls-1 {
        fill: #cb9866;
      }
    </style>
  </defs>
  <g id="Layer_1-2" data-name="Layer 1">
    <g>
      <path class="cls-1" d="M101.59,46.39c-.05,.61,.05,1.02,.82,.71,.45-.18,.93-.44,1.39-.43,1.23,.02,1.06-1.44,1.95-1.73,.2-.07,.42-.08,.79-.14,.08-.27,.23-.73,.32-1.2,.03-.15-.14-.33-.22-.49-.13,.08-.27,.15-.38,.25-.64,.58-1.28,1.16-1.91,1.74-.1-.05-.21-.09-.31-.14,.28-1.14,.55-2.27,.84-3.47-.21,.03-.53,.08-.85,.12l.04,.04c-.42-.48-.83-.95-1.3-1.48,.03-.04,.24-.32,.5-.65,.34,.48,.65,.91,.94,1.31,1.18-.17,1.54-1.18,2.07-2.02,.16-.25,.4-.46,.77-.55-.1,.32-.19,.63-.29,.95,.09,.04,.17,.07,.26,.11,.2-.31,.4-.62,.61-.94,.35,.24,.71,.5,1.05,.74,.2-.67,.36-1.19,.5-1.67,.37,.24,.89,.65,.94,.6,.44-.47,1.01-.96,1.15-1.54,.26-1.09,.58-1.48,1.66-1.27,.61,.12,1.19,.34,1.72,.5-.23,.3-.45,.6-.63,.84-.27-.28-.54-.57-.81-.85-.34,.56-1.46,.11-1.44,1.32,0,.56-.44,1.15,0,1.76,.09,.09,.18,.18,.27,.28-.12,.3-.26,.59-.36,.9-.08,.22-.12,.45-.21,.81,.4-.28,.59-.41,.77-.53,.32,.43,.61,.83,1.02,1.38-.85-.35-.98,1.78-1.95,.58-.56,.55-1.13,1.1-1.7,1.66l.04-.03v-1.01c-.15-.32-.41-.63-.35-.84,.08-.26,.39-.55,.67-.63,.24-.07,.57,.17,.86,.18,.4,.01,.81-.06,1.22-.1-.01-.1-.03-.21-.04-.31-1.4-.18-1.65-.67-1.04-2.03-.27-.05-.55-.11-.76-.15-.05,.48-.09,.89-.15,1.43-.38-.25-.58-.38-.69-.45-.81,.36-.5,1.8-1.8,1.67-.06,0-.22,.32-.22,.5,0,.28,.07,.57,.14,1.01,.33,.1,.88,.26,1.54,.46-.84,.41-1.5,.73-2.15,1.05l.18,.33c.53-.13,1.05-.25,1.65-.39v2.18h-1.49c-.18-.47-.28-.73-.38-.99-.08,.02-.16,.04-.24,.06-.05,.26-.1,.51-.17,.83-.27-.38-.5-.72-.94-1.34,0,.85-.09,1.38,.03,1.85,.09,.35,.44,.63,.68,.95-1.16,.8-1.62-.72-2.71-.66-.27,1.5,1.62,1.15,2.22,2.16,.15-.51,.3-1.01,.46-1.52,.11-.1,.22-.22,.34-.31,.21-.16,.43-.31,.65-.46,.03,.26,.05,.52,.09,.78,.02,.14,.09,.28,.14,.44,.38-.03,.72-.06,1.05-.09l-.04-.03c-.03,.39-.16,.79-.08,1.16,.1,.45,.37,.86,.58,1.34,.16,.06,.48,.26,.81,.3,.35,.04,.94,.07,1.05-.12,.57-1.03,1.19-.52,1.83-.16l-.02-.03c.29,.48,1.15,.63,.77,1.55-.09,.22,.48,.71,.78,1.13,.48-.87,.88-1.59,1.33-2.42,.27,.86,.3,1.69,.74,2.1,.32,.3,1.16,.06,1.8,.19-1.73,.79-3.53,1.17-5.77,1.05,.46,.29,.66,.4,.8,.49-.74,1.18-1.5,2.4-2.27,3.61,.13-1.48-2.49-1.68-1.56-3.54-.92,.53-1.84,1.07-2.76,1.6-.07-.43-.14-.86-.21-1.34,.2,0,.47,.07,.68-.02,.22-.09,.46-.31,.52-.52,.04-.14-.19-.5-.34-.53-.19-.03-.41,.2-.63,.27-.42,.14-.85,.25-1.28,.37,.1,.33,.23,.74,.36,1.15-.26,.04-.52,.09-.76,.13,.35,.38,.65,.71,.86,.94,.3-.17,.56-.32,.83-.48,.09,.37,.18,.74,.24,.94,.93-.13,1.88-.27,2.83-.4,.02,.1,.03,.2,.05,.3-.38,.39-.76,.78-1.14,1.16,.1,.09,.19,.17,.29,.26,.13-.13,.26-.27,.19-.2,.49,.31,.83,.62,1.21,.71,.2,.05,.5-.31,.79-.52v2.67l-.17,.05c-.09-.26-.17-.52-.26-.78-.69,.14-1.39,.29-2.09,.43,.02,.12,.05,.24,.07,.37,.59-.08,1.18-.16,1.99-.26,.14,1.31,.29,2.75,.46,4.3-.56-.28-.95-.48-1.41-.71,.06,.45,.11,.78,.17,1.19,.34-.07,.67-.13,1.01-.19,.05,.15,.07,.26,.12,.36,.41,.9-.91,1.67-.18,2.59-.38,.21-.73,.52-1.13,.63-.86,.23-.96,.72-.8,1.6,.49-.55,.83-.95,1.18-1.34l.23,.16c-.06,.29-.12,.58-.19,.87h.77c-.19,2.39-.26,4.78-2.05,6.7,.13-.59,.26-1.17,.39-1.76-.07-.04-.13-.07-.2-.11-.28,.62-.96,1.42-.77,1.83,.43,.96,.02,1.46-.51,1.99,.24,.4,.46,.77,.71,1.2-.32,.07-.56,.12-.79,.17,1.88-.02,.8,1.4,1.09,2.29,.16-.29,.23-.43,.4-.75,.7,1.62,1.34,3.12,1.88,4.38-.59,.21-1.16,.41-1.73,.61,.04,.12,.09,.23,.13,.35l1.1-.28c-.02,.29-.05,.57-.07,.86,.07,.04,.14,.08,.21,.11,.17-.32,.34-.64,.62-1.18,.34,.19,.74,.42,1.03,.58,.86-1.09,1.87,.02,2.76-.01-.28,.41-.56,.81-.83,1.22,.08,.05,.15,.1,.23,.16,.52-.34,1.02-.87,1.58-.95,.39-.06,.88,.5,1.42,.85-.06,.12,.03-.06,.14-.26,1.48,.73,1.63,.93,1.47,2.16,.3-.2,.55-.34,.78-.51,.13-.09,.24-.2,.36-.3,.11,.18,.22,.36,.34,.53,.08,.11,.15,.26,.27,.32,.97,.51,1.97,.96,2.9,1.54,.25,.15,.26,.67,.48,1.32,.13-.21,.24-.41,.4-.68,3.6,2.78,7.18,5.74,11.65,7.57-.36,.34-.58,.54-1.01,.94,.69-.2,1.08-.31,1.24-.36,.83,.45,1.5,.82,2.19,1.19-.12,.3-.25,.62-.47,1.17,.69-.23,1.16-.53,1.59-.49,.35,.04,.63,.54,.99,.77,1.29,.86,2.6,1.68,3.77,2.73h-.67c.14,.18,.24,.45,.42,.51,.23,.08,.53,0,.79,0,.01-.12,.03-.24,.04-.35,1.44,1,2.92,1.96,4.32,3.01,1.05,.78,2.01,1.69,3.03,2.52,.62,.5,.92,1.06,.23,2.12,.73-.12,1.15-.19,1.71-.28,2.44,1.66,5.08,3.46,7.69,5.23-.03,.27-.07,.53-.1,.79,.18-.07,.35-.17,.53-.19,.24-.03,.53-.07,.72,.04,2.01,1.22,4,2.46,5.99,3.7,.79,.49,.7,.81-.35,1.68,.6-.18,1.2-.37,1.8-.55-.01-.14-.02-.29-.03-.43,.94,.62,1.88,1.24,2.81,1.86-.05,.03-.11,.06-.16,.09,.37,.06,.78,.05,1.1,.2,2.46,1.2,5.06,2.17,7.44,3.87,.72-.37,4.25,1.37,4.47,2.43,.31-.04,.62-.08,.93-.12,.03,.47,.07,.94,.13,1.72,.24-.61,.38-.97,.56-1.42,1.63,.88,3.29,1.78,4.96,2.68,.48,.26,1.03,.41,1.43,.75,.67,.56,1.24,1.24,1.96,1.98,0,0,.3-.07,.6-.15-.06,.23-.11,.46-.19,.76,1.39-.57,1.61,.84,2.09,1.47,1,1.33,1.73,2.87,2.5,4.35,1.17,2.24,.45,4.69-1.48,6.34-2.7,2.3-5.85,2.56-9.19,2.84-3.05,.26-4.94-1.59-7.18-2.87-.99-.57-1.88-1.33-2.78-2.05-.36-.29-.62-.72-.99-1.17-.16-.02-.57,.05-.76-.12-.59-.56-1.09-1.22-1.65-1.8-.07-.07-.49,.14-.52,.09-.26-.43-.46-.89-.69-1.36-.71,.74-1.19-.29-1.91-.6-.97-.41-.69-1.39-1.25-2.05-.21,.25-.4,.47-.66,.78-.65-.93-2.22-.84-2.5-2.17-.37-.07-.84-.08-1.25-.25-1.05-.44-2.08-.91-3.1-1.43-1.9-.97-3.78-1.97-5.66-2.97-.56-.3-1.1-.65-1.77-1.06,.44-.13,.77-.22,1.1-.32-.64-1.4-.62-1.36-2.01-.75-.3,.13-.92-.05-1.19-.3-.85-.8-1.99-1.14-2.73-2.19-.54-.76-1.75-1.02-2.63-1.55-.21-.13-.29-.48-.28-.47-1.13-.69-2.1-1.27-3.14-1.9,.34-.64,.64-1.23,.95-1.81l-.18-.18c-.4,.43-.81,.86-1.34,1.43-1.34-1.02-2.77-2.1-4.2-3.18l.16-.14c-.38-.14-.81-.21-1.15-.42-1-.62-2.06-1.18-2.91-1.97-1.07-.99-2.42-1.4-3.6-2.15-.7-.44-1.31-1.03-1.97-1.55-.11,.03-.43,.23-.61,.15-2.84-1.38-5.67-2.78-8.48-4.22-.27-.14-.37-.59-.57-.88-.11-.16-.27-.42-.37-.41-1.67,.28-2.49-1.23-3.78-1.77-.32-.13-.62-.35-.88-.59-.27-.25-.48-.56-.75-.9-.45-.16-1.01-.36-1.6-.57,.21-.29,.41-.58,.57-.8-1.34-.6,.38-1.44-.5-2.19-.19,.94-.35,1.77-.53,2.7-.58-.16-1.19-.41-1.83-.49-1.01-.13-2.04-.18-3.06-.18-.22,0-.52,.37-.65,.63-.64,1.29-1.22,2.61-1.87,3.9-.13,.25,.15,1.21-.72,.56-.09,.31-.29,.89-.26,.9,1.16,.49,.57,1.37,.41,2.04-.65,2.71-.41,5.46-.46,8.26h-.74c-.05,.83-.1,1.57-.14,2.32,.08,0,.16,0,.25,.01v-1.22c.34,.45,.63,.66,.62,.85-.09,1.45-.27,2.9-.34,4.35-.02,.37,.3,.75,.48,1.16-.68,.1-1.19,.17-1.76,.25,1.89,1.25,2.13,1.81,1.31,2.26,.12,.8,.44,1.56,.28,2.18-.16,.61-.82,1.09-1.42,1.81,.59-.28,.99-.46,1.72-.8,0,2.91,.06,5.64-.02,8.37-.05,1.6,.78,2.58,1.98,3.38,.39,.26,.81,.47,1.2,.73,1.23,.79,1.23,.84,.3,2.02,.37-.34,.74-.68,1.27-1.17,.14,.28,.34,.72,.59,1.14,.06,.1,.26,.14,.4,.16,2.21,.42,3.86,1.83,5.58,3.14,.62,.47,1.48,.61,2.19,.98,.34,.18,.59,.54,.98,.92,.72-.3,2.73,.96,3.84,2.82,.17-.44,.28-.73,.39-1.04q2.02,.52,2.6,1.38c.34-.21,.68-.42,1.03-.64-.02-.06-.04-.13-.06-.19-.31,.02-.62,.05-1.01,.08,0-.24-.09-.52,.01-.68,.76-1.15,1.58-2.27,2.33-3.43,.13-.2,0-.57-.02-.87-.16-1.56,.7-2.71,1.63-3.78,.59-.68,1.66-1.12,1.91-1.87,.66-1.96,2.49-2.62,3.8-3.82,.78-.71,1.86-1.11,2.97-1.75v2.14c.07,.02,.14,.05,.21,.07,.11-.32,.24-.63,.31-.95,.08-.37,.1-.76,.15-1.25,2.28,1.08,3.61,2.83,4.56,4.86,.5,1.08,.7,2.31,1.06,3.54-.24,.06-.51,.13-.94,.25,2.55,1.14-.24,2.18,.12,3.38,.32-.31,.58-.57,.91-.89,0,1.09,.25,2.28-.09,3.26-.24,.7-.26,1.11,.04,1.72,.09,.18-.32,.6-.45,.81,.13,.23,.42,.54,.35,.68-.51,1.11,.59,2.61-.61,3.5,.12,.32,.41,.73,.39,1.12-.09,3-.22,6.01-.37,9.01-.03,.55-.25,1.08-.4,1.67,1.45,.12,.25,1.5,.74,2.24,.33,.49,.13,1.35,.47,1.83,.88,1.24,.62,2.49,.48,3.84-.21,1.95-.18,3.92-.35,5.88-.07,.84-.4,1.65-.61,2.47-.03,.11-.11,.28-.06,.34,1.15,1.59-.37,3.28,.35,4.91-.39-.02-.62-.04-.84-.05,0,.08-.04,.15-.01,.19,.15,.29,.47,.59,.45,.87-.18,2.64-.45,5.27-.61,7.92-.05,.88,.01,1.79,.06,2.68,.08,1.56-.02,3.17-.35,4.7-.37,1.73-1.52,3.03-3.01,4.05-1.23,.84-1.5,2.3-1.93,3.62-.66,2.01-1.26,4.05-2.77,5.65-.45,.47-.73,1.1-1.17,1.58-.17,.18-.56,.17-.9,.25q0,.76-3.77,2.31c-.1-.23-.21-.45-.31-.68-.13,.07-.24,.1-.24,.14-.03,.53-.17,.8-.82,.86-1.9,.18-3.78,.48-5.99,.77,.38-.47,.49-.6,.63-.78-.66-.06-1.08-.1-1.45,.67-.27,.56-1.18,.81-1.8,1.22-.36,.23-.66,.56-1.05,.72-1.98,.83-3.97,1.61-5.95,2.42-.04,.01-.08,.06-.11,.05-1.69-.68-2.65,1.12-4.2,1.21-2.53,.15-5.03,.75-7.54,1.1-2.77,.38-5.56,.18-8.3,.71-.93,.18-1.94,.08-2.9,0-.3-.02-.58-.37-.84-.55-.02,.07-.07,.29-.14,.58-1.87,0-3.8,.25-5.61-.09-1.18-.22-2.18-.1-3.3,.06-1,.15-2.06,.19-3.04,0-1.23-.25-2.44,.31-3.68-.16-1.26-.48-2.67-.57-3.95-1.02-1.25-.45-2.41-1.17-3.63-1.72-.85-.38-1.79-.59-2.59-1.04-1.99-1.12-3.95-2.3-5.89-3.52-1.74-1.09-3.39-2.31-5.14-3.39-1.34-.83-1.9-2.12-2.43-3.49-.33-.86-.77-1.69-1.14-2.54-.28-.64-1-1.33-.06-1.75-.36-.27-.88-.46-1.06-.83-.65-1.34-1.2-2.72-1.72-4.11-.11-.28,.09-.68,.12-.9-1.47-1.08-1.36-3.02-2.41-4.52,.48,.04,.78,.06,1.11,.09-.02-.16-.03-.23-.04-.3-.91,.16-1.25-.4-1.47-1.14-.87-2.87-2.4-5.6-2.16-8.72,.14-1.88,.49-3.74,.73-5.61,.24-1.83,.51-3.66,.68-5.5,.36-3.94,.67-7.88,1-11.82,.02-.29,0-.59,.07-.87,.17-.71,.37-1.41,.58-2.16-.06-.09-.42-.41-.4-.71,.11-1.57,.34-3.13,.5-4.69,.1-.97,.11-1.95,.2-2.93,.14-1.61,.28-3.22,.49-4.82,.36-2.74,.96-5.4,2.7-7.67,2.17-2.84,4.86-4.96,8.34-5.87,.96-.25,2.15-.22,3.06,.14,1.55,.61,2.47,1.96,2.95,3.57,.02,.07-.26,.22-.2,.17,.31,.57,.63,1.08,.87,1.62,.4,.92,.66,1.92,1.15,2.78,.71,1.25,1.78,1.52,3.12,.92,1.71-.77,3.39-1.58,5.17-2.41,.09,.24,.19,.49,.28,.75-.21-1.06,.54-1.37,1.27-1.71,2.42-1.11,4.81-2.29,7.26-3.34,.86-.37,1.84-.52,2.78-.61,.29-.03,.62,.47,1.08,.66-.26-.48-.52-.97-.77-1.45,2.13-1.04,3.98-2.48,5.07-4.77,.12-.25,.45-.39,.58-.49v-2.12l.41-.09c.15,.41,.31,.82,.51,1.34,.2-.46,.38-.88,.58-1.36-1.13,.08-1.48-.45-1.39-1.5,.17-1.94,.28-3.88,.34-5.82,.04-1.16-.07-2.31-.08-3.47,0-.26,.07-.54,.18-.78,.16-.34,.71-.68-.14-.87-.06-.01-.09-.46-.04-.68,.28-1.26,.58-2.51,.9-3.84-.22,.1-.4,.19-.63,.3v-1.33c.15,.3,.23,.47,.32,.67,.49-.44,.96-.87,1.44-1.3-.08-.09-.16-.19-.24-.28-.38,.21-.76,.43-1.12,.63-.08-.08-.17-.14-.17-.18,.15-1.4,.37-2.79,.45-4.19,.07-1.2-.05-2.41,.01-3.61,.03-.6,.57-1.35,.35-1.73-.4-.72,.02-1.34-.11-2-.14-.66,.01-1.26,.81-1.5,.09-.03,.08-.38,.12-.58-.18,.02-.37,.04-.66,.08-.03-.49-.06-.99-.1-1.58-.34-.03-.67-.06-1.01-.09,.03-.25,.06-.47,.12-1.01-1.27,1.99-2.73,1.63-4.3,.94,.18,.16,.37,.33,.62,.56-.99,.41-1.94,.8-2.97,1.23-.22-.34-.45-.69-.68-1.05-.03,.03-.13,.09-.12,.11,.74,1.99-1.24,2.01-2.09,2.79-.74,.69-1.72,1.12-2.55,1.71-.78,.55-1.47,1.23-2.28,1.74-.43,.28-1.1,.21-1.49,.51-.51,.4-.77,1.12-1.28,1.52-2.02,1.59-4.08,3.13-6.15,4.65-2.08,1.53-4.21,3-6.29,4.53-.43,.31-.74,.79-1.11,1.19-.12-.49-.25-.98-.36-1.46-.39,.1-.81,.21-1.24,.32,0,.05,0,.1,0,.15,.35,.05,.71,.11,1.19,.18-.37,.63-.69,1.16-1.13,1.9,.67-.48,1.13-.81,1.58-1.13-1.2,2.11-2.9,3.78-4.85,5.18-.15,.11-.53-.11-.84-.18-.17,1.85-2.01,1.97-3.2,2.7-2.82,1.74-5.79,3.24-8.68,4.87-.84,.47-1.62,1.05-2.25,1.46-.27,.44-.4,.85-.68,1.05-.42,.3-.77,.6-1.14,.99-.9,.98-2.11,1.69-3.26,2.4-.3,.19-.85-.03-1.5-.08,.29,.32,.42,.46,.58,.64-.54,.31-1.03,.6-1.55,.9-.15-.17-.3-.34-.28-.32-.41,.42-.74,.97-1.22,1.2-.96,.45-1.62,1.73-2.98,1.17-.05-.02-.21,.12-.26,.22-.65,1.35-1.98,2.03-2.96,3.05-.89,.93-1.3,2.3-1.97,3.44-.25,.43-.65,.77-.78,.93-.2,.92-.15,1.79-.55,2.35-1.12,1.55-2.32,3.07-3.69,4.38-.49,.46-.89,.93-1.24,1.46-.25-.1-.52-.21-.91-.37,.51,1.25,.34,1.62-.39,1.93-.18,.72-.3,1.18-.49,1.94-.24-.44-.34-.6-.42-.76-.24,.32-.48,.65-.76,1.03,.23,.12,.5,.27,1.01,.54-.55,.07-.85,.11-1.14,.14,.47,1.7-1.08,2.25-1.93,3.03-2.41,2.23-5.33,1.98-8.09,.92-2.02-.78-3.57-2.37-4.62-4.33-.04-.07-.04-.22,0-.25,.09-.06,.21-.06,.73-.19-1.2-.07-1.44-.54-1.2-1.29,.03-.09-.1-.24-.19-.35-.41-.54-.42-.98,.25-1.35,.46-.25,.89-.54,.33-1.15-.55-.6-.3-.96,.44-1.05-.26-1.69,1.33-4.08,2.35-4.07,.73-1.11,1.27-2.13,1.99-3,1.9-2.31,3.82-4.61,5.84-6.82,1.32-1.44,2.6-2.91,3.88-4.37,.32-.37,.8-.61,1.2-.91,.78,.49,1-.52,1.55-.58,.25,.35,.49,.69,.75,1.05,.85-.77,.38-1.29-.39-1.55-.32-.1-.78,.24-1.18,.38,.3-.41,.54-.88,.9-1.22,1.72-1.68,3.48-3.33,5.27-5.03,.21,.2,.39,.37,.7,.67-.02-1.85,1.04-2.55,2.53-2.88,.04-.91,1.22-1.76,2.61-1.92,.27-.47,.42-1.11,.73-1.21,1.6-.49,2.36-2.02,3.69-2.82,1.38-.83,2.73-1.7,4.02-2.66,1.52-1.14,2.95-2.41,4.44-3.61,.83-.67,1.72-1.87,2.54-1.84,2.04,.09,1.55-2.47,3.21-2.49,.03,.18,.07,.44,.17,1,.23-.59,.44-.92,.49-1.27,.08-.62,.16-.71,.73-.64,.23,.03,.69-.1,.69-.19,.18-1.85,1.98-2.08,3.05-3.01,.34-.3,.76-.55,1.14-.87,2.08-1.78,4.29-3.41,6.61-5.22-.03,.39-.05,.58-.06,.67,.64-.64,1.34-1.33,2.11-2.1,.09,.36,.13,.5,.17,.66,.13-.07,.25-.11,.25-.14-.09-.84,.49-1.18,1.09-1.52,1.45-.82,2.92-1.61,4.32-2.5,1.01-.63,1.91-1.42,2.91-2.08,.98-.65,2-1.24,3.02-1.81,.22-.12,.55-.06,.82-.1,.27-.04,.66-.03,.77-.19,.88-1.27,1.98-2.12,3.52-2.58,.91-.27,1.68-1.02,2.49-1.54,.05,.02-.11-.05-.2-.09,.75-.59,1.52-1.19,2.29-1.79,.07,.07,.14,.13,.21,.2-.35,.38-.69,.76-1.04,1.14l.09,.21c.37-.17,.74-.34,.96-.44h1.69c0-.12,.01-.23,.02-.35-.48-.14-.96-.27-1.61-.46,.09-.19,.18-.74,.45-.86,1.76-.78,2.91-2.34,4.44-3.42,.71-.5,1.23-.68,2.23-.05-.24-.59-.37-.92-.52-1.29,1.21-.91,2.51-1.85,3.74-2.86,.25-.2,.32-.71,.33-1.08,.04-1.53,.02-3.05,.02-4.41,.61-.35,1.01-.59,1.39-.81-.39-.23-.72-.41-1.02-.63-.06-.04,0-.38,.07-.42,.46-.23,.96-.39,1.42-.62,.19-.1,.31-.34,.28-.7-.32,.12-.65,.24-1.07,.4v-1.63s-.09,0-.14-.01c-.07,.19-.14,.38-.25,.69-.19-1.99,.22-2.81,1.38-2.97-.3-.11-.61-.21-.95-.33-.03-.29-.07-.67-.13-1.13,.22,.05,.46,.1,.9,.19-.44-1.16-1.74-2.27-.5-3.1,.15-1.82,.29-3.36,.42-4.97,.41-.11,.99-.27,1.92-.52-.65-.16-.98-.24-1.4-.34,.62-.66,.67-1.29-.04-1.91-.16-.14-.22-.46-.23-.7-.02-.99-.01-1.99-.01-2.98-.11,0-.22,0-.33,0-.17,.18-.34,.36-.66,.69-.45-.72-.86-1.37-1.26-2.02-.53-.57-1.03,1.39-1.78,.21,.22-.25,.44-.49,.66-.73l-.04,.04c.41-.2,.82-.39,1.21-.58-.18-2.82-.27-2.85,1.05-2.7-.23-.37-.41-.67-.63-1.03,.16-.12,.42-.33,.79-.62-.55-.13-1-.23-1.45-.34,.28-.77,1.8-1.1,.92-2.1,.2-.31,.34-.54,.49-.76-.07-.08-.14-.17-.2-.25-.45,.16-.91,.31-1.08,.37-.1,.62-.16,1.03-.23,1.44-.8-1.41-1.25-1.57-2.41-.81-.2,.13-.41,.27-.61,.4l.03,.03c-.1-.16-.19-.32-.29-.48l.28-.28c.87-.13,1.37-.46,1.23-1.52-.11-.86,.71-1.84,1.68-2.1-.27,.61-.46,1.06-.74,1.68,.54-.27,.91-.46,1.28-.65-.37-.8-.74-1.55-1.04-2.34-.05-.14,.21-.56,.35-.57,.7-.05,1.4,0,2.39,.01-1.93,1.02-1.23,2.5-1.09,4.05,.33-.66,.58-1.17,.82-1.66-.15-.24-.34-.53-.53-.83,.27-.05,.53-.1,.52-.1,.71-.42,1.23-.73,1.75-1.04,0,.06,.02,.12,.02,.18-.4,.53-1.02,1.03-1.12,1.62-.06,.32,.75,.79,1.24,1.26,.2,.29,.48,.68,.73,1.04,0,0-.21,.04-.43,.08,.16,.28,.32,.56,.5,.88-.2,.21-.43,.48-.45,.49-.49-.34-.87-.61-1.25-.87-.04,.07-.08,.14-.12,.21,.19,.41,.39,.82,.66,1.38-.33,.1-.74,.23-1.32,.41,.18-.46,.29-.74,.39-1.01l-.45-.08c-.08,.61-.21,1.22-.23,1.83,0,.29,.19,.58,.28,.83,.46-.05,.92-.1,1.39-.15,.16-.02,.41-.03,.44-.12,.05-.14,0-.35-.06-.51-.1-.24-.26-.47-.35-.63,.39-.39,.71-.79,1.11-1.06,.23-.15,.82-.19,.89-.07,.2,.34,.38,.85,.25,1.18-.17,.42-.66,.71-.97,1.09-.22,.27-.36,.61-.53,.92,.09,.06,.19,.12,.28,.18,.49-.29,.99-.59,1.34-.8,.33,.29,.6,.71,.86,.7,.41-.02,.8-.32,1.2-.51-.04-.11-.09-.22-.13-.33-.24,.09-.48,.18-.54,.2-.29-1.01-.64-2.21-.98-3.39-.09-.03-.17-.1-.23-.08-.35,.11-.69,.25-1.04,.37-.04-.11-.13-.29-.1-.3,.34-.23,.68-.46,1.05-.65,.24-.12,.51-.17,.77-.25,0,0-.03-.02-.03-.02Zm-36.92,62.86c1.16,.31-.47,.82,.09,1.18q1.6-.85,1.74-1.53c-.37,.25-.65,.43-.96,.64-.06-.33-.1-.59-.2-1.2-.33,.46-.51,.7-.68,.94,.21-.43,.41-.86,.61-1.27-.21-.11-.56-.27-.79-.39-.42,.78-.86,1.59-1.48,2.73,.74-.48,1.2-.78,1.67-1.09Zm39.96-45.89c.82,1.55,1.1-.35,1.88-.27-.1,.49-.19,.94-.29,1.39-.4-.1-.69-.17-.97-.24,.07,.65,.13,1.25,.2,1.85,.13,.02,.26,.04,.38,.06,.18-.48,.26-1.05,.57-1.41,.29-.34,.94-.37,1.23-.71,.14-.16-.21-.73-.36-1.19-.57-.04-1.21-.09-2.07-.16,.05,.03-.14-.08-.33-.19-.07,.3-.14,.61-.21,.9-.36-.12-.75-.37-1.09-.32-.67,.09-1.32,.33-1.98,.53-.06,.02-.14,.23-.11,.29,.08,.14,.21,.32,.35,.34,1.08,.21,2.04-.02,2.8-.87Zm-23.19,123.8c.62,.07,1.26,.09,1.88,.21,2.49,.48,5.14-.17,7.51,1.12,.06,.03,.2-.05,.29-.1,1.1-.58,2.62-.33,3.18,.37,.44-.18,.78-.44,1.09-.42,1.21,.1,2.4,.37,3.61,.42,1.75,.08,3.51,.02,5.44,.02-.18,.52-.3,.88-.46,1.35h.72v-1.49c1.39,.18,2.81,.46,4.22,.49,.68,.02,1.37-.39,1.95,.28,.01,.02,.18-.11,.28-.16,.34-.16,.68-.43,1.03-.44,1.06-.03,2.13,.09,3.19,.06,2.62-.08,5.23-.22,7.85-.32,.95-.04,1.84,.31,2.85,.05,1.83-.48,3.69-.92,4.6-2.72,1.14-2.24,.93-4.74,.85-7.17-.03-.92-.35-1.84-.57-2.9-.07-.02-.6,.01-.82-.23-1.38-1.57-3.17-2.46-5.02-3.33-.84-.4-2.13-.26-2.41-1.58-.01-.05-.35-.07-.52-.05-.18,.03-.38,.22-.51,.18-.67-.21-1.34-.44-1.97-.74-1.45-.69-2.85-1.49-4.33-2.11-1.22-.51-2.55-.76-3.79-1.24-2.37-.92-4.69-2-7.08-2.87-1.88-.68-3.55-1.98-5.67-2.01-.07,0-1.23,.16-.91-.83,.06-.18-.38-.51-.59-.77-.07,.03-.14,.05-.21,.08,.07,.43,.15,.86,.23,1.34-.14,0-.33,.03-.52,.02-2.74-.12-5.33,.36-7.67,1.91-.32,.21-.84,.13-1.13,.17-.35,.5-.61,1.02-1.01,1.41-.94,.93-1.92,1.83-2.93,2.7-.68,.59-1.4,1.14-2.14,1.65-.2,.14-.54,.06-.65,.07-.21,.27-.35,.6-.6,.74-1.96,1.11-3.91,2.26-5.94,3.23-1.22,.58-2.57,1.06-3.89,1.18-.67,.06-1.78,1.34-2.26-.48-.41,.44-.71,.76-.96,1.03-.17-.12-.44-.31-.45-.3-.63,.82-1.55,.65-2.36,.6-2.33-.14-3.81,1.07-4.89,2.94-.23,.41-.43,1.01-.3,1.41,.33,1.04,.78,2.07,1.32,3.01,.63,1.09,1.31,2.19,2.89,2.04,.61-.06,1.3,0,1.85,.25,1,.44,2.38-.31,3.1,1,.03,.05,.41-.07,.61-.15,.14-.05,.25-.23,.38-.23,.36,0,.72,.04,1.08,.08,.97,.11,1.95,.2,2.92,.34,.25,.04,.46,.27,.71,.42,.59-.51,3.16-.2,3.68,.68,.82-1.36,1.73,.15,2.6-.11,.04,.49,.08,.99,.13,1.48,.11,.02,.22,.04,.33,.06,.05-.5,.09-.99,.16-1.65Zm-2.41,15.56c-.59,.17-1.12,.45-1.67,.46-1.76,.06-3.51,0-5.27,.03-.87,.02-1.27-.25-1.02-1.04-.73-.2-1.43-.39-2.13-.59-.18,.09-.49,.37-.82,.39-1.11,.08-2.24-.02-3.34-.06-1.64-.05-2.9,.49-3.95,1.57-.35,.36-.53,1.11-.45,1.64,.15,1,.47,2,.83,2.95,.57,1.49,1.22,2.96,1.87,4.42,.92,2.05,3.08,2.73,4.6,4.12,1.16-.45,1.42,.5,1.91,1.31,.15-.31,.27-.55,.34-.69,2.59,.78,5.08,1.61,7.63,2.24,.81,.2,1.53,.7,2.49,.6,.66-.07,1.39,.42,2.08,.66-.01-.05-.02-.09-.04-.14,2.91,.25,5.83,.49,8.75,.74,.05,.33,.11,.66,.22,1.35,.24-.71,.36-1.09,.45-1.36,1.33-.12,2.54-.32,3.76-.33,2.87-.01,5.7-.42,8.48-1.07,4.83-1.13,9.62-2.43,14.38-3.65-.04,.29-.07,.52-.1,.75,.18-.12,.39-.21,.55-.36,.35-.3,.62-.78,1.01-.91,1.23-.42,2.47-.78,3.67-1.3,1.15-.5,2.03-1.19,2.46-2.3,.93-2.44,1.74-4.93,2.64-7.51-.79-.35-1.56-.53-2.14-.96-2.34-1.76-5.08-1.64-7.75-1.72-1.32-.04-2.66,.42-3.99,.51-4.15,.28-8.29,.51-12.45,.71-.37,.02-.76-.34-1.12-.51-.08,.61-3.18,.87-6.28,.41,.09-.18,.17-.35,.25-.52-1.08,1.69-1.79-.48-2.71-.15-.05,.21-.12,.49-.2,.84-.63-.19-1.13-.27-1.8-.15-1.66,.3-3.42,.1-5.12,.1-.07-.28-.13-.51-.2-.73l-.23,.03c-.01,.22-.03,.44-.04,.71-1.61,0-3.19,.03-4.76-.03-.32-.01-.62-.35-.79-.46ZM101.19,61.98c.12,.04,.24,.08,.36,.13,.29-.62,.67-1.21,.85-1.85,.29-1.05-.77-1.04-1.07-1.37-.24,.43-.38,.9-.69,1.17-.37,.33-.89,.5-1.41,.77,0,0-.15-.26-.31-.51q-.02,.38,1.97,.92c.1,.24,.21,.49,.31,.73Zm2.33-3.15c-.11-.07-.22-.14-.33-.21-.17,.3-.52,.62-.47,.88,.05,.25,.49,.59,.76,.6,.47,.01,.46,.16,.71,.53,.63,.95,.44-1.01,1.16-.5,.01-.06,.03-.12,.06-.26-.31-.02-.61-.04-.88-.06-.09-.79-.18-1.5-.27-2.27h-1.29c-.45-.54-.79-.94-1.24-1.49-.05,.39-.15,.62-.1,.8,.19,.67,.48,1.14,1.34,1.26,.41,.05,.72,.78,1.08,1.2-.26,.14-.53,.28-.79,.42l-.15-.21c.13-.23,.27-.46,.4-.69Zm26.57,41.52c-.63,.48-1.64-1.29-2.2,.34,.31-.02,.59-.03,1.13-.06-.43,.72-.81,1.27-1.12,1.87-.28,.53-.48,1.11-.72,1.66,.67-.6,1.06-1.32,1.52-2,.43-.63,.93-1.21,1.4-1.82Zm1.45,7.44c.45-.11,.83-.1,1.06-.28,.26-.19,.61-.67,.53-.82-.21-.41-.01-1.23-.76-1.19-.79,.05-1.24,1.53-.83,2.29Zm-6.09-13.39c-.64,.26-1.29,.34-1.65,.71-.52,.52-.82,1.24-1.22,1.88,.15,.08,.3,.17,.45,.25,.17-.34,.28-.76,.54-1.02,.25-.25,.66-.34,1-.5-.02,.14-.05,.28-.07,.42,.23-.01,.45-.03,.5-.03,.15-.58,.28-1.03,.46-1.71Zm-18.54-21.33c-.18,.64-.29,1.03-.43,1.49,.86-.08,1.87-.17,2.87-.26v-.37c-.88-.31-1.76-.62-2.45-.86Zm-6.73-20.42c-.66,.17-1.24,.14-1.46,.4-.61,.74-1.07,1.59-1.55,2.42-.03,.05,.3,.43,.41,.41,.23-.05,.43-.26,.64-.4-.82-.85,.28-.8,.54-1.13,.37-.48,.78-.94,1.43-1.7Zm-34.6,173.62c1.17,.23,2.09,.4,3.21,.62-.1-.52-.21-1.16-.33-1.79-.09-.04-.19-.09-.28-.13-.29,1.32-.97,1.4-1.92,.84-.09-.05-.38,.24-.69,.46ZM104.24,53.54c-.08-.04-.16-.07-.23-.11-.19,.57-.38,1.15-.62,1.89-.7-.46-1.29-.85-1.88-1.24-.42,.77,.46,.95,.82,1.29,.28,.27,.8,.3,1.22,.38,.07,.01,.25-.21,.28-.34,.15-.62,.27-1.24,.41-1.86Zm-3.61,25.13c.07,.02-.1,0-.11-.04-.15-.79-.47-.77-.95-.24-.09,.1-.27,.16-.41,.16-.25,0-.5-.04-.75-.06,.2,.21,.4,.42,.61,.66-.13,.24-.28,.52-.43,.8,.07,.06,.14,.13,.2,.19,.6-.48,1.21-.97,1.83-1.47Zm-2.51-7.96c.03-.09,.06-.18,.08-.27-.18-.34-.55-.92-.5-.97,.5-.4,1.07-.7,1.62-1.03-.19-.23-.5-.32-.74-.22-1.3,.56-1.73,1.26-1.25,2.06,.13,.22,.52,.29,.78,.42Zm14.89-17.8c-.15-.1-.3-.19-.45-.29-.23,.26-.44,.54-.69,.78-.2,.19-.46,.32-.7,.47-.45-1.03-.52,.13-.81,.22,.54,.22,1.2,.47,1.59,.25,.47-.27,.72-.93,1.06-1.43Zm11.25,49.3c-.29-.07-.73-.28-.85-.17-.65,.63-.9,1.48-.77,2.35,.03,.22,.61,.35,.94,.53-.68-1.55-.56-2.08,.68-2.71Zm-20.35-52.06c.15,.1,.29,.19,.44,.29-.16,.41-.33,.82-.49,1.23,.11,.06,.22,.11,.32,.17,.36-.59,.72-1.19,1.09-1.79-1.29-.74-1.65-.58-1.77,.99,.14-.29,.27-.59,.41-.88Zm-4.02,53.15c.98-.59,1.18-1.75,.41-2.71-.02,.44-.04,.82-.06,1.21-.33,.1-.64,.2-1.06,.33,.26,.43,.46,.76,.71,1.17Zm9.1,94.11c-.61,.23-1.17,.32-1.59,.63-.41,.3-.67,.81-.88,1.07,.9-.25,1.79-.49,2.72-.75-.06-.24-.17-.67-.24-.95Zm-5.27-145.6c-1.49-.06-1.64,.66-1.73,1.35-.02,.12,.37,.3,.57,.45,.34-.53,.68-1.05,1.16-1.8Zm39.07,56.67c.11-.11,.22-.21,.34-.32-.09-.31-.19-.62-.28-.93-.2,.08-.4,.15-.6,.23,.34,.69,.6,1.43,1.05,2.04,.13,.17,.8-.08,1.42-.16-.82-.36-1.38-.61-1.93-.85ZM16.09,162.53c.12,.08,.23,.15,.35,.23,.49-.58,.99-1.15,1.55-1.81-.31-.1-.53-.16-.73-.25-.22-.1-.42-.24-.63-.37,0,.26-.08,.56,.01,.78,.25,.6,.27,.58-.34,.95-.12,.08-.15,.31-.22,.47Zm-10.86,.76c.13,.11,.26,.22,.39,.33,.84-.74,1.84-1.4,1.55-2.77-.13,0-.26,0-.4,0,.04,.33,.08,.66,.09,.73-.61,.64-1.12,1.18-1.63,1.72Zm47.21,18.71c.79-.38,1.43-.69,1.83-.88-.17-.5-.3-.81-.35-1.13-.02-.11,.17-.25,.27-.38-.13-.05-.32-.19-.39-.14-.13,.08-.21,.27-.29,.42-.24,.44-.47,.87-.69,1.32-.12,.23-.22,.46-.37,.79Zm111.33-55.93c-1.01-.57-2.44,.19-2.47,1.07,.84-.36,1.66-.72,2.47-1.07Zm-104.3,35.54c-.49-.16-.87-.32-1.26-.41-.25-.05-.53,0-.8,.02,0,.1,0,.21,.01,.31,.35-.02,.71-.04,.85-.04,0,.5-.11,1.15,.02,1.2,1.26,.52,.45-1.01,1.18-1.09Zm47.34-5.67c-.04,.17-.07,.33-.11,.5,.48,.14,.96,.28,1.4,.41-.03,.34-.07,.73-.11,1.12,.13,.01,.26,.03,.39,.04,0-.58,.2-1.29-.06-1.71-.2-.32-.99-.26-1.51-.37Zm14.09,4.38c.28,.14,.49,.24,.75,.37-.36,.32-.66,.59-.98,.87h1.41v-2.03c-.36,.24-.7,.47-1.18,.79Zm-21.36-84.77c-.2,.73-.32,1.19-.48,1.77,.64-.07,1.14-.12,1.91-.2-.55-.6-.94-1.03-1.44-1.57Zm55.74,45.83c-.03-.64-.05-1.03-.07-1.45-.59,.15-1.16,.3-1.73,.45-.02,.1-.04,.2-.06,.29,.58,.22,1.15,.43,1.86,.7Zm-26.32-5.95c1.34-.96,1.54-1.85,.71-2.75-.23,.88-.48,1.86-.71,2.75Zm-34.25-9.12c-.12-.04-.24-.09-.35-.13-.18,.28-.59,.73-.52,.82,.59,.78,1.3,1.2,2.34,.15-.56,.05-.95,.08-1.34,.12-.03-.25-.08-.6-.12-.95Zm47.38,40.58c.43-.94,.7-1.56,.98-2.17h-1.35c.11,.66,.21,1.24,.37,2.17Zm-94.64,61.48c.57-.55,1.06-1.02,1.63-1.57-.73-.07-1.26-.12-1.74-.17,.04,.52,.06,.96,.12,1.74Zm62.39,11.64c-.69,.04-1.28,.07-1.95,.11,.14,.29,.26,.54,.37,.78,.35-.16,.63-.28,.99-.45,.11,.37,.21,.69,.32,1.01,.11-.01,.23-.03,.34-.04-.03-.51-.06-1.02-.08-1.41Zm11.89-114.54c-.21,.25-.38,.46-.56,.67,.05,.05,.11,.1,.16,.14,.48-.35,.96-.7,1.72-1.26-.74-.2-1.18-.34-1.64-.42-.07-.01-.3,.33-.28,.36,.15,.18,.35,.31,.59,.5Zm2.67,116.18c-.14,.2-.41,.42-.37,.54,.24,.74,.55,1.45,.86,2.16,.02,.05,.3,.06,.37,0,.08-.08,.11-.27,.09-.4-.08-.4-.2-.79-.3-1.17-.17-.3-.37-.65-.64-1.13Zm-21.69-155.93c-.59,.4-1.08,.73-1.57,1.06,.06,.1,.13,.21,.19,.31,.62-.23,1.24-.46,2.03-.75-.06-.04,.11,.07,.28,.17,.05-.09,.11-.19,.16-.28-.36-.17-.73-.34-1.09-.52Zm16.5,31.8c.72-.08,1.36-.15,2.2-.25-.25-.47-.4-.75-.64-1.21-.27,.43-.46,.74-.66,1.05-.26-.19-.55-.39-.9-.64v1.04Zm32.51,18.86c.47-.16,1.01-.34,1.55-.52l-.09-.14c-.44,.05-.88,.1-1.36,.15,.06-.38,.09-.61,.13-.82-.5,.07-.91,.12-1.48,.2,.48,.44,.84,.76,1.25,1.14Zm-56.16-14.38c-.61,1.03-.3,1.86,.86,2.58-.29-.88-.55-1.66-.86-2.58Zm12.06-14.96c-.64,.05-1.21,.09-1.85,.13,.1,.33,.21,.66,.25,.8,.55,.08,.95,.13,1.23,.17,.13-.4,.26-.77,.36-1.1Zm-.13-20.27c-1.74-.3-1.58,.93-2.15,1.43,.09,.1,.18,.19,.27,.29,.56-.51,1.11-1.02,1.88-1.72Zm-4.39-6.25c-.29,.77-.5,1.35-.75,1.99,1.4,.23,.78-1.11,1.35-1.44-.18-.17-.37-.34-.6-.55Zm30.62,107.28c-.37-.68-.57-1.06-.77-1.44-.12,.03-.23,.06-.35,.09,.04,.31,.09,.61,.14,.92-.35,.03-.76,.07-1.17,.1,0,.11,0,.22,.01,.33h2.14Zm-30.31-28.15c-.46-.22-.83-.4-1.4-.68-.18,.65-.33,1.16-.49,1.72,.73-.4,1.23-.67,1.89-1.03Zm-19.23,25.92l-.33-.04c-.08,.29-.17,.58-.24,.83-.37-.11-.7-.21-1.03-.31l-.13,.48c.53,.13,1.06,.27,1.59,.4,.05-.46,.1-.91,.14-1.37Zm-69.65-1.36c.31,.31,.62,.61,.93,.92-.53,.04-1.07,.08-1.46,.11,.7,.34,1.21,.15,1.54-.82-.34-.07-.67-.14-1.01-.22Zm10.01-20.76c-.04-.38-.08-.81-.12-1.21-.55,.67-1.08,1.33-1.62,1.99,.01,.07,.03,.13,.04,.2,.54-.31,1.07-.62,1.69-.99Zm21.79-15.8c.73-.3,1.3-.54,1.78-.73-.2-.29-.4-.66-.45-.64-.46,.17-.91,.37-1.31,.65-.11,.07-.02,.43-.02,.72Zm-6.01-.75c-.3-.48-.58-.93-.79-1.27-.4,.41-.79,.82-1.23,1.27h2.01Zm59.51-3.94c-.55-.34-1.11-.67-1.93-1.17,.4,.82,.68,1.37,.96,1.95,.34-.27,.6-.47,.98-.77Zm-14.51,105.65c.1,.09,.19,.17,.29,.26,.32-.38,.65-.77,.99-1.18,.17,.25,.33,.48,.5,.72,.11-.1,.21-.2,.32-.3-.25-.24-.47-.61-.77-.71-1.23-.4-.64,1.03-1.33,1.21Z"/>
      <path class="cls-1" d="M22.28,105.42c.13-.37,.27-.77,.42-1.17-.08-.04-.16-.08-.25-.12-.24,.21-.47,.42-.7,.62-.43-.82-.85-1.64-1.3-2.49,.34-.07,.62-.13,1.01-.21-.15-.22-.24-.45-.31-.44-1.2,.08-.93-.8-.96-1.47-.11-2.43,.94-4.24,3.02-5.44,.23-.13,.6,0,.9-.05,.25-.04,.68-.09,.71-.23,.32-1.19,1.07-.72,1.53-.58,.27-1.03,.55-2.08,.86-3.28-.88-.67,.34-1.55,.44-2.47,.1,.36,.2,.72,.3,1.06,1.27,.62-.19-1.95,1.69-.72-.58-1.03-.9-1.61-1.26-2.25,1.15-.79,2.04-2.31,4.09-1.62-.65,.47-1.22,.88-1.87,1.36,1.58,.23,1.73-1,2.25-1.89-.29,.03-.58,.06-1.01,.1,.97-1.31,2.08-.54,3.21-.7-.29-.17-.58-.34-.92-.53,1.44-.64,2.77-1.82,4.73-.73-.03-.16-.05-.33-.08-.49-.36-.12-.71-.24-1.26-.43,1.85-1.14,3.51-2.16,5.3-3.27-.04,.55-.06,.83-.09,1.34,.56-.47,.95-.79,1.4-1.17-.19-.16-.41-.33-.78-.63,1.25-.22,2.36-.42,3.54-.64-.06,.18-.15,.45-.24,.71l.16,.15c.25-.27,.62-.5,.7-.81,.08-.31-.12-.7-.18-.97,.26-.36,.57-.79,.89-1.2,.25-.32,.48-.7,.81-.92,1.45-.93,2.92-1.83,4.42-2.67,.48-.27,1.08-.42,1.62-.43,1.39-.01,1.73-2.21,3.39-1.59,.03,.01,.2-.28,.27-.44,.04-.11-.03-.34,.01-.35,1.98-.73,3.97-1.45,6-2.18-.3,.62-.5,1.02-.7,1.42,.1,.05,.2,.1,.3,.14,.46-.36,.91-.75,1.4-1.06,.14-.09,.6,0,.63,.11,.1,.31,.19,.73,.05,.98-.39,.71-.9,1.35-1.34,2.04-.14,.22-.2,.48-.3,.73,.27,.06,.54,.12,.85,.19-.1,.27-.22,.63-.37,1.06,2.03-.44,.7-2.07,1.26-3.04,1.77,1.85,1.85,3.08,.34,4.06,.98,.15,1.39,1.06,.55,2.18,.17,.25,.3,.44,.43,.63-.38,.22-.76,.43-1.14,.65,.03,.07,.06,.14,.09,.21,.33-.06,.65-.11,1.21-.21-.86,1.45-.8,3.33-2.58,3.61-.35,.7-.49,1.35-.89,1.71-1.37,1.24-2.81,2.41-4.26,3.55-.31,.24-.79,.25-.86,.27-.85,1.99-2.34,3.2-3.66,4.51-.24,.24-.71,.26-1.15,.41,.85,1.39-1.04,1.49-1.6,2.29-.63,.9-1.47,1.89-3.05,1.3,.15,.36,.24,.57,.31,.75-3.25,1.6-6.49,3.2-9.55,4.71-.12-.76-.28-1.76-.46-2.89-.35,.26-.72,.52-1.24,.9,.39,.16,.65,.26,.93,.37,.54,1.52,.39,2.81-1.46,3.28-.05-.56,.48-1.43-.68-1.82,.43,2.23-.07,2.9-1.91,2.98-.18,.35-.26,.75-.48,.86-.29,.15-.69,.07-1.07,.09-1.17,1.63-3.03,2.46-4.65,3.35-.38-.35-.63-.59-.97-.9-.33,1.12-.63,2.02-1.74,.89-.06-.06-.24-.1-.31-.06-1.59,.82-1.56,.79-2.93-.38-.39-.33-.99-.42-1.48-.62Zm40.82-33.99c.13,.62,.25,1.15,.38,1.74,.8-.32,1.89-.31,1.43-1.67-.37,.06-.69,.12-1.09,.19,.25-.62,.45-1.11,.64-1.61-.09-.06-.18-.11-.27-.17-.37,.52-.74,1.03-1.09,1.51Zm-23.48,13.49c.18,.29,.3,.51,.43,.72-.43,.21-.99,.7-1.26,.58-.83-.39-.61,.05-.55,.5,.87-.19,1.7-.37,2.66-.57-.14-.6-.27-1.17-.43-1.88-.42,.32-.67,.51-.85,.65Zm-11.31,6.62c1.02,1.24-.74,1.24-.95,2.07,.49,.51,1.2,.76,1.26-.1,.07-1.05,.49-1.6,1.31-2.02-.05-.06-.09-.13-.09-.12-.51,.05-.97,.1-1.54,.16Zm27.79-6.85c.17-.13,.47-.36,.85-.65-.6-.24-1.07-.38-1.48-.61-.13-.07-.11-.4-.17-.61-.54,.16-1.07,.32-1.28,.38,.64,.45,1.36,.97,2.08,1.48Zm-2.38-7.93c.11,.05,.22,.09,.33,.14,.29-.52,.69-1.02,.81-1.58,.06-.26-.42-.63-.77-1.12-.15,1.06-.26,1.81-.37,2.57Zm-3.25,2.21c-.7,.65-1.24,1.15-1.89,1.76,.88-.13,1.55-.23,2.3-.35-.11-.39-.23-.82-.41-1.42Zm-6.28,10.73c-.16,.81-.32,1.63-.48,2.44,.14,.03,.28,.07,.42,.1-.24-.92,1.41-1.36,.06-2.54Zm.36-8.29q.03-1.76,1.51-1.94c-.12-.31-.24-.61-.3-.76-.89,.56-2.5,.85-1.21,2.7Zm-10.85,18.75c2.01-.05,2.24-.17,2.43-1.1-.24,.14-.67,.5-.76,.43-.99-.79-1.13,.45-1.67,.67Zm28.71-19.47c.66,.03,1.11,.05,1.56,.07v-1.74c-.62,.67-1.01,1.09-1.56,1.67Zm.14-4.31c-.19,.73-1.32,1.14-.29,2.14-.1-1.21,.56-1.47,1.49-1.56-.37-.18-.74-.36-1.2-.58Zm-19.43,3.61c-.09-.05-.18-.11-.27-.16-.39,1.52-.85,.77-1.35,.09-.14,.29-.26,.55-.34,.71,.54,.28,1.03,.54,1.64,.85,.11-.53,.22-1.01,.33-1.49Zm10.95,3.96c-.39,.75-.66,1.28-.92,1.78,.28,.18,.6,.37,1.16,.72-.09-.9-.15-1.58-.24-2.51Z"/>
      <path class="cls-1" d="M161.87,76.7c.95,.37,1.92,.68,2.83,1.13,.63,.31,1.17,.81,1.95,1.37,.79-.16,1.52,.29,1.6,.99,.56,.13,1.01,.23,1.47,.34-.02,.12-.05,.23-.07,.35-.29-.05-.57-.1-.86-.16-.03,.08-.06,.16-.09,.24,.28,.1,.63,.36,.84,.28,1.57-.58,2.31,.52,3.15,1.47,.11,.12,.31,.17,.46,.26,.56,.35,1.31,.59,1.65,1.09,1.09,1.65,2.6,3.17,2.19,5.44-.02,.14-.08,.27-.19,.59-.08-1.54-.18-1.6-1.95-1.09,.62,.48,1.18,.92,1.77,1.38-.93,1.26-1.92,2.63-3.63,3.19-.23,.08-.53-.08-.79-.06-.32,.02-.65,.08-.96,.18-.19,.06-.36,.3-.53,.29-1.3-.06-2.59-.16-3.89-.26-.6-.05-1.2-.08-1.78-.22-.28-.07-.49-.49-.76-.54-.52-.09-1.07-.03-1.66-.03,.04-.18,.08-.35,.12-.53-.07-.02-.19-.07-.22-.04-.68,.78-1.44,.21-2.09,.03-2.21-.61-4.49-1.11-6.57-2.05-2.92-1.31-5.68-2.97-8.49-4.5-.21-.11-.33-.39-.42-.5-.32-.09-.65-.12-.91-.27-.94-.53-1.86-1.09-2.76-1.69-.14-.1-.18-.48-.13-.7,.06-.3,.25-.58,.43-.96-.58,.34-1.09,.87-1.6,.88-.47,0-1.18-.47-1.35-.9-.2-.49,.08-1.17,0-1.86-.26,.46-.51,.93-.83,1.51-.41-.48-.81-.96-1.22-1.44l.24-.15c-.83-.28-1.65-.56-2.55-.86,.41-.33,.69-.55,.97-.77-.51-.03-1.01-.07-1.52-.1,0,.09-.02,.17-.03,.26-.41-.3-.81-.6-1.23-.91,.15-.17,.28-.31,.43-.47-.12-.09-.22-.18-.24-.16-.78,.56-1.37-.22-1.54-.56-.56-1.07-1.81-1.37-2.36-2.46-.57-1.12-1.44-2.08-2.1-3.16-.16-.27-.02-.72-.02-1.2-.12,.05-.38,.17-.6,.27-1.4-1.04-1.15-2.35-.58-3.7,.06-.14,.13-.32,.25-.39,.87-.46,1.74-.94,2.65-1.32,1.1-.46,2.2-.31,3.65,.26-.56,.15-.79,.27-1.02,.26-.59-.02-.88,.16-.72,.65,.24,.75,.55,1.43-.7,1.43-.1,0-.19,.39-.39,.83,.4-.14,.63-.2,.82-.3,.25-.14,.56-.91,.62,.11,0,.04,.32,.14,.37,.1,.18-.18,.44-.42,.42-.61-.03-.46-.21-.9-.32-1.35,.81-.35,1.06-.29,3.26,.58-.3-.24-.6-.47-.95-.75,.24-.94,1.09-.45,1.59-.42,.73,.05,1.44,.42,2.16,.67,1.13,.39,1.17,.56,.4,1.49-.08,.1-.05,.3-.07,.45-.43-.27-.87-.54-1.33-.83-.1,.67-.16,1.14-.24,1.68,.4-.13,.71-.19,.98-.34,.22-.12,.38-.36,.56-.54,.53-.33,1.07-.66,1.79-1.12,.93,.25,1.81,1.46,3.2,1.22,.05,0,.17,.08,.18,.13,.22,1.27,1.28,.67,2.28,.86-.71,.31-1.16,.51-1.78,.79-.01-.01-.2-.23-.3-.35-.46,.39-.87,.73-1.42,1.2,.42,.15,.76,.26,1.1,.38,.55,.36,1.1,.72,1.66,1.08,.12-.4,.24-.81,.4-1.35-.9,.13-1.49,.22-2.09,.31,.56-.87,1.43-1.05,2.63-1.45,.54-.72,.62-.7,1.24,.49,.11,.2,.42,.3,.63,.45,.07-.17,.14-.33,.25-.59,.8,.33,1.69,.67,2.57,1.05,.82,.35,1.63,.74,2.49,1.12-.34,.36-.66,.71-.99,1.05,.08,.02,.16,.04,.24,.06-.19,.75-.38,1.5-.64,2.51,.52-.75,.88-1.27,1.29-1.87-.07-.16-.2-.47-.32-.76,3.05-.86,5.1,1.42,7.57,2.33,.91,.33,1.67,1.05,2.5,1.59-.17,.15-.33,.31-.51,.45-.24,.21-.49,.41-.74,.62-.07-.27-.15-.54-.21-.78-.52-.1-1.04-.19-1.35-.25-.21,.49-.28,.97-.56,1.22-.76,.68-1.61,1.26-2.43,1.88,1.38-.39,2.96-.46,3.29-2.22,1.77,.96,1.97,.88,2.47-.95Zm-26.25-7.18c.13,.27,.38,.82,.74,1.62,.37-.69,.61-1.13,.83-1.54,.09,.17,.2,.38,.5,.95,.44-1.15,.76-2,1.12-2.93-1.09,.65-2.06,1.23-3.19,1.9Zm-3.46-1.27c-1.26,.35-1.69,1.16-1.42,2.35,.03,.16-.01,.47-.06,.48-1.06,.21-.62,.92-.62,1.58,.42-.06,.74-.1,.99-.13,.68-1.36-.5-3.13,1.12-4.28Zm13.26,13.47c-.75-.1-1.69,.48-1.6-.81-.18,0-.47-.09-.53-.01-.19,.27-.29,.6-.42,.91,.11-.02,.21-.05,.32-.07,.19,.35,.33,.74,.58,1.04,.13,.15,.59,.27,.68,.18,.35-.34,.62-.77,.97-1.23Zm4.56-4.1c.5,.32,1.01,.64,1.5,.95,.86-.5,.55-1.26,.08-1.63-.68-.53-1.25-.05-1.58,.68Zm-15.16-5.48c-.12-.27-.22-.47-.31-.67-.18,.15-.45,.28-.53,.47-.15,.37-.19,.78-.26,1.14,.92-.27,2.04-.59,3-.87-.16-.35-.31-.66-.5-1.07-.13,.34-.24,.66-.37,1h-1.02Zm4.41,6.35c.04-.8,.08-1.6,.12-2.4-.14-.01-.28-.02-.41-.03l-.17,.85c-.07-.09-.14-.17-.21-.26-.34,.22-.68,.43-.89,.57,.6,.49,1.01,.82,1.56,1.27Zm27.71,3.73c-.37,1.75,1.09,.89,2.01,1.43-.47-.78-.76-1.25-1.05-1.72-.25,.08-.6,.18-.96,.29Zm-18.81,2.1c-.32,.25-.58,.46-1.08,.86,1.06,.1,1.86,.34,1.98,1.35,.24-.03,.49-.06,.89-.11-.68-.79-1.23-1.44-1.8-2.1Zm4.16,.43c-.13,.83-.25,1.67-.4,2.64,1.32-1.28,1.38-2.22,.4-2.64Zm-19.53-11.58c-.65,.39-1.11,.67-1.49,.89,.28,.58,.48,1.01,.79,1.65,.23-.85,.42-1.54,.7-2.54Zm10.78-.84c-.43,.16-.87,.33-1.57,.59,.43,.52,.79,.96,1.22,1.47,.15-.89,.25-1.46,.35-2.07Zm3.32,4.13c1.7-.07,1.08-1.36,1.56-2.15-.41,.06-.74,.1-1.19,.17,.23,.39,.38,.64,.47,.79-.29,.41-.51,.73-.83,1.19Zm25.35,5.93c-.92-.08-1.75-.16-2.54-.23,1.08,1.3,1.56,1.36,2.54,.23Zm-3.07,4.68c.03,.35,.09,.85,.14,1.36,.12,.04,.25,.09,.37,.13,.34-.46,.68-.92,1.03-1.38-.58-.04-.93-.07-1.53-.12Zm-25.71-9.87c1.54-.42,1.92-1.11,1.25-1.99-.4,.64-.83,1.32-1.25,1.99Zm16.96,11.26v-2.41c-.42,.78-.76,1.42-1.07,2.01,.28,.11,.57,.21,1.07,.4Z"/>
      <path class="cls-1" d="M91.88,47.42l-.28,.28c-.24-.05-.48-.1-.87-.17,.07,.29,.18,.47,.14,.62-.04,.18-.19,.33-.3,.5-.02-.15,0-.33-.08-.43-.36-.4-.74-.78-1.12-1.17-.2,.25-.4,.5-.6,.75,1.24,.86,1.24,.91-.01,1.83-1.41,.36-1.71,.88-1.47,2.28,.08,.43-.12,.91-.12,1.36,0,.43,.12,.86,.16,1.29,.03,.3,0,.61,0,1.14-.3-.47-.47-.72-.67-1.03-.34,.31-.66,.62-1.1,1.03,.03-.42,.05-.73,.08-1.32-.31,.46-.43,.76-.65,.93-.23,.18-.56,.23-1.12,.45,.18-.64,.3-1.05,.41-1.46-1.26-.24-.43,.81-.78,1.5-.47-.69-.85-1.24-1.36-1.97-.53,.19-1.18,.42-1.84,.65l.15,.38c.3-.14,.61-.29,.91-.43,.05,.05,.09,.11,.14,.16-.31,.26-.59,.67-.94,.73-.49,.09-.45-.37-.62-.75-.32-.72-1.11-.39-1.78,.23,.39-.04,.64-.07,.89-.1-.1,.78-.47,.87-1.95,.32,.91-.67,1.69-1.25,2.45-1.81-.47-.21-1.52-.51-.06-1.24,.14-.07,.1-.5,.1-.51-.85,.24-1.73,.49-2.61,.74,0-.08,0-.15,0-.23,.17-.37,.35-.74,.53-1.12,1.23,.57,3.87-.71,4.18-2.07,.61,.85,1.48-.28,2.14,.34,.26-.55,.51-1.07,.75-1.58-.6,.3-1.12,.57-1.64,.83-.12-.34-.23-.69-.32-.95-.28,.43-.59,.9-.91,1.38-.44,.12-.89,.24-1.33,.36,1.11-1.01,1.12-2.26,.98-3.58,.39,.2,.73,.38,1.08,.56,.1-.62,.31-1.25,.24-1.86-.02-.2-.78-.29-1.17-.48-.34-.17-.63-.43-.96-.61-.54-.29-1.11-.54-1.66-.83-.45-.23-.88-.48-1.32-.71,.05-.1,.09-.2,.14-.3,.5,.16,1,.33,1.5,.49v-1.54c.67-.08,1.31-.15,2.06-.24-.21,.59-.41,1.14-.65,1.82,.37-.06,.69-.11,1.04-.17,.06,.38,.12,.78,.16,1.04,.5,.12,.95,.23,1.31,.32,.08,.36,.14,.67,.2,.98,.13-.02,.25-.04,.38-.06-.04-.51-.09-1.02-.14-1.59,.25,.06,.49,.13,.73,.19,.04-.06,.08-.12,.11-.18-.7-.48-1.39-.97-2.04-1.42,.65-.22,1.34-.45,2.16-.73,0,0,.18,.22,.46,.55,.51-1.56,1.71-1.3,2.84-1.29-.21,.3-.39,.57-.51,.74,.37,.5,.67,.9,1.11,1.49,.76-.18,.53-2.01,1.97-1.93-.07-.14-.16-.3-.28-.53,.64,.03,1.25,.06,1.97,.09-.27,.36-.52,.7-.81,1.09,.17,.06,.37,.14,.64,.25-.45,.34-.87,.66-1.29,.97l-.22-.14c.16-.39,.31-.78,.47-1.18-.05-.08-.09-.16-.14-.24-.4,.25-.81,.49-1.21,.74,.2,.2,.42,.39,.58,.61,.11,.15,.15,.36,.22,.55-.51,.18-1.02,.36-1.53,.54-.4-.03-.89-.21-1.16-.03-.27,.17-.22,.83-.49,1.03-.25,.18,.63,.87-.37,.64-.4-.09-.95,.44-1.42,.68,.5,.17,.9,.04,1.3-.01,.21-.02,.51,.03,.66,.17,.48,.46,.91,.98,1.56,1.7,.26-1.04,.42-1.71,.6-2.41-.51-.43-1.45-.78-.65-1.8-.01,.23-.03,.45-.03,.51h2.35c0-.1,.01-.2,.02-.29-.29-.24-.57-.49-.86-.73,1.14,.08,2.4-.11,3.07,1.5-.49-.12-.85-.21-1.51-.37-.44,.15,.62,1.85-.94,1.59,.09-.26,.17-.51,.26-.77-.41,.04-.82,.08-1.15,.11v2.32c.1,.04,.2,.07,.31,.11,.11-.26,.22-.52,.33-.78,.09-.23,.17-.46,.26-.7,.16,.3,.9,.58,.02,.9,.1,.17,.18,.34,.29,.51,.21,.32,.44,.63,.66,.94Zm-8.32,5.66c.45-.5,.88-1.01,1.34-1.5,.45-.48,1-.88,1.36-1.41,.19-.28,.26-.92,.08-1.13-.34-.39-.89-.61-1.39-.85-.06-.03-.42,.3-.4,.41,.1,.5,.28,.97,.5,1.67-.07,.05-.41,.45-.76,.46-.25,.01-.53-.5-.87-.85-.12,.41-.23,.76-.33,1.11-.05-.06-.1-.13-.15-.19-.79,.65-1.57,1.3-2.36,1.95,.03,.08,.07,.15,.1,.23,.79-.24,1.58-.49,2.39-.74,.17,.29,.32,.56,.47,.83Zm.73-6.94c-.07-.17-.2-.5-.33-.84-.35,.22-.76,.39-1.04,.68-.13,.13-.14,.63-.03,.71,.29,.21,.67,.34,1.03,.38,.38,.04,.77-.07,1.41-.14-.36-.27-.62-.47-1.04-.79Z"/>
      <path class="cls-1" d="M62.26,47.09c.14,.23,.23,.55,.44,.67,.44,.27,.95,.43,1.17,.77,.11,.39,.23,.78,.34,1.17,0,0,.03-.04,.03-.04-.17,.16-.38,.29-.51,.47-.38,.56-.31,1.44-1.23,1.66-.27,.06-.46,.47-.91,.96,.86-.1,1.33-.16,2.01-.24-.11,.58-.2,1.11-.29,1.63-.11,.05-.22,.1-.33,.15-.1-.2-.19-.4-.25-.52-.42,.21-.78,.46-1.18,.55-.12,.03-.29-.48-.52-.63-.38-.25-.83-.41-1.28-.62v1.03h.89c-.85,.16-1.77,.78-2.42-.38-.07-.12-.73,.04-1.1,.14-.37,.09-.72,.27-1.38,.52,.28-.58,.4-.83,.67-1.37-.6,.35-.97,.56-1.36,.78-.1-.13-.23-.31-.28-.37-.37,.19-.67,.43-1,.49-.45,.08-.93,.02-1.51,.02,.39-1.05,.72-1.96,1.01-2.76-.74-.15-1.48-.3-2.32-.46,.14,.18,.34,.47,.58,.71,.2,.2,.44,.35,.67,.52-.2,.11-.49,.17-.59,.34-.1,.17-.1,.47-.02,.67,.1,.25,.31,.44,.61,.83-.9-.12-1.5-.19-2.27-.29,.05-.42,.12-.97,.19-1.56-.39,.17-.78,.33-1.24,.53,.01,.08,.04,.33,.1,.79-1.05-.17-2.01-.32-2.96-.46-.01-.09-.02-.17-.04-.26,.71-.28,1.43-.52,2.11-.85,.14-.07,.11-.49,.16-.78h-1.09c0-.16,0-.31,0-.47,.61,.02,1.23,0,1.84,.07,.63,.08,1.73-.94,1.96-1.89,.04-.15,.16-.41,.2-.41,1,.18,.75-.67,.85-1.1,.21-.89,.29-1.81,.45-2.88,.6,.03,1.32,.06,2.03,.09-.25,.09-.5,.18-.76,.27-.29,.2-.58,.39-.87,.59,.43,1.23,1.42,1.51,2.54,.72,.06,.09,.13,.18,.19,.27-.31,.17-.63,.33-.93,.51-.4,.23-.8,.47-1.2,.71,.06,.11,.12,.22,.18,.34,.29-.14,.57-.28,1.03-.5,.13,.48,.27,.99,.45,1.69,.23-.14,.79-.29,.97-.64,.14-.27-.18-.79-.39-1.52,.34-.64,.87-1.64,1.51-2.85-.44,.1-.9,.2-1.72,.38,.62-.43,.97-.67,1.36-.93-.19-.17-.41-.36-.52-.45,.54-.4,1.06-.79,1.61-1.2,.17,.38-.3,1.31,.81,.91,.16-.06,.68,.87,1.22,1.59,.19-.6,.33-1.05,.53-1.66,.76,0,1.28-1.44,2.84-1.02-.58,.3-.88,.45-1.17,.6,0,.07,0,.13,0,.2h1.89c-1.31,1-2.33,1.78-3.5,2.67-.04,.49-.1,1.32-.16,2.24-.3-.08-.54-.14-.78-.2,.16-.48,.3-.89,.47-1.37-1.27,.21-.79,1.31-1.2,1.92,.28,.17,.57,.35,.84,.51-.08,.75-1.79,.36-1.07,1.61-.33-.07-.65-.14-.96-.21-.29,.59-.57,1.13-.84,1.67,.13,.08,.26,.15,.39,.23,.46-.57,.92-1.15,1.38-1.72,1.1-.57,2.21-1.15,3.46-1.8,.02-.09,.11-.43,.2-.78,0,0,0,0,0,0Zm-11.38,2.65l.26,.23c.38-.27,.84-.84,1.13-.77,1.22,.33,1.68-.56,2.24-1.34-.38,.16-.76,.32-1.14,.48-.1-.34-.21-.7-.38-1.26-.21,.43-.48,.72-.41,.87,.35,.83,.13,.94-.71,.84-.29-.03-.66,.61-1,.95Zm5.43-1.06c.74-.21,1.37-.38,1.99-.55-.11-.29-.22-.57-.25-.68,.24-.21,.44-.39,.71-.62-1.59-.35-2.07,.52-2.45,1.85Zm5.02,1.53q1.68-.51,1.66-.72c-.54-.08-1.06-.19-1.58-.22-.63-.04-1.39-.16-1.18,.79,.4,.05,.75,.1,1.1,.14Zm-.91,1.31c.05-.21,.14-.57,.24-.96-.82,0-1.72-.02-2.4,.96h2.15Z"/>
      <path class="cls-1" d="M121.13,43.82c.2,.02,.39,.05,.59,.07-.12,.32-.23,.62-.29,.8,.91-.18,2.08-.74,2.41-.42,.65,.63,.99,1.78-.43,2.47,.41,.05,.81,.1,1.54,.19-.65,.18-1.01,.28-1.37,.38,.02,.98,.59,.7,1.14,.51,.25-.09,.51-.13,.77-.19-.05,.26-.1,.51-.18,.92,.4-.08,.74-.15,.98-.2-.12-.8-.22-1.51-.35-2.38,.41,.02,.95,.04,1.49,.07,.38-.32,1.02-.63,1.27-1.13,.36-.73,.72-1.63-.2-2.36-.75,.04-1.52,.08-2.28,.11-.02,.13-.04,.27-.05,.4,1.36,.02,1.63,.72,1.25,1.8-.34-.11-.82-.11-.95-.33-.49-.8-1.34-.11-1.92-.56,.53-.5,1.36-.92,1.47-1.49,.11-.55-.52-1.24-.78-1.79-.53,.17-.95,.3-1.36,.44-.07-.09-.14-.19-.21-.28,.65-.49,1.31-.98,1.96-1.47l.26,.29c-.13,.18-.25,.36-.46,.65,.37,.29,.77,.6,1.18,.91,.12,.71,.54,1.04,1.24,.92,.21-.04,.53-.27,.54-.43,.02-.21-.23-.44-.38-.7,.17-.06,.52-.2,.87-.33,.39,.81,.71,1.49,1.1,2.3,.04,0,.34,.03,.72,.06-.27,.49-.46,.84-.67,1.24,.36,.12,.65,.21,.94,.31l-.03-.03c.08,1-.97,2.2-1.9,2.03-.97-.17-1.03,.29-.92,1.01,.95-.09,1.84-.18,2.73-.27,0,0,0,0,0,0,.08,.44,.15,.87,.26,1.51,.16-.05-.01,.06-.16,.04-.98-.2-.94-.21-.7,.79,.06,.24-.22,.56-.33,.84-.18,.47-.34,.94-.52,1.46q-.93-.11-.41-1.05c.04-.07,.04-.15,.05-.23,.03-.26,.05-.52,.08-.91-1.15,.65-.99,2.8-2.91,2.24,.08-.17,.21-.41,.33-.64-.68,1.19-2.08,.36-2.92,1.2,.03-1.57,1.55-2.17,1.93-3.38-.11-.11-.23-.21-.34-.32-.89,.69-1.79,1.39-2.68,2.08,.06,.07,.12,.13,.18,.2-.6,.09-1.19,.19-1.79,.28,.3,.47,.59,.94,.92,1.46-.46,.07-.82,.08-1.16,.18-.81,.25-1.08-.07-1.02-.86,.01-.18-.19-.37-.3-.56-.15-.02-.3-.05-.45-.07,.27-.37,.54-.74,.84-1.14,.29,.27,.55,.51,1.04,.97-.6-1.94,1.06-2.62,1.91-3.95-.61,.11-1.03,.15-1.42,.27-.29,.09-.72,.23-.19,.62-.48,.52-.96,1.04-1.38,1.51-.12-.04,.08,.03-.01,0-.85,.81-1.79,1.7-2.88,2.75,.14-1.16,.25-2.09,.35-2.91,.54-.13,1.13-.26,1.98-.46-.42-.39-.61-.56-.79-.73,1.03-1.55,2.81-1.52,4.48-1.93-.5-.42-.85-.75-1.23-1.02-.1-.07-.44,0-.48,.09-.44,1.05-1.17,.62-2.14,.48,.73-.28,1.21-.46,2.01-.77-.59-.23-.84-.33-1.26-.49,.55-.04,.94-.07,1.42-.1-.11-.26-.19-.46-.28-.66,.09-.09,.18-.18,.27-.28Zm4.73,7.02c.65,.17,1.05,.28,1.41,.37,.06-.38,.14-.91,.28-1.84-.68,.59-1.16,1.01-1.69,1.47Z"/>
      <path class="cls-1" d="M76.99,51.98c0,.08,0,.15,0,.23-.14,.06-.28,.12-.41,.18,.3,.6,.6,1.2,1.04,2.08-1.14,.3-2.12,.56-3.32,.88,.11-.75,.17-1.15,.22-1.55-1.24,1.89-3.12,.87-4.87,.88,.18-.1,.36-.3,.53-.29,.58,.05,1.05,0,1.09-.73l-.04,.03c.19-.34,.39-.69,.58-1.02,.76,.65,1.73,.7,2.6,.23,1.24-.65,1.3-1.77,.75-3.12-.32,.16-.64,.31-1.02,.49,.24,.43,.44,.78,.68,1.21-.46,.13-.86,.24-1.48,.42-.04,.06-.23,.4-.57,.99-.33-.72-.53-1.29-.85-1.79-.29-.45-.65-.95-1.1-1.17-.28-.13-.79,.23-1.34,.42-.02-.25-.05-.65-.08-1.17-.24,.03-.59,.07-.91,.11-.05-.38-.1-.76-.15-1.13,.28-.15,.57-.31,.89-.49-.06,.45-.1,.79-.16,1.23,.93-1.06,1.67-1.92,2.6-2.98,0,.01-.09-.32-.19-.65l-.03,.04c.37-.02,.73-.05,1.2-.08-1.04-.93-1.03-1-.04-1.48-.14-.12-.28-.23-.42-.35,.21-.88,.93-.37,1.41-.5,.17,.65,.34,1.3,.56,2.14,.91-1.4,2.02-1.99,3.36-2.1,.23-.02,.51,.43,.9,.8-.63,.09-1.01,.15-1.34,.19,.17,.83,.33,1.62,.49,2.41-.59,.09-1.18,.18-2.1,.32,.54,.25,.75,.36,1.25,.59-.84,.12-1.37,.19-1.9,.27,.78,.29,1.41,.51,2.01,.43,.5-.06,.96-.45,1.44-.7-.05-.07-.09-.15-.14-.22-.35,.07-.7,.14-1.39,.27,.43-.52,.62-.75,.81-.98,.26-.07,.51-.15,.9-.26-1.11-1.2,.13-1.42,.67-2.12,.3,.62,.08,1.51,1.07,1.46,.07,0,.18,.83,.27,1.28-.25,.05-.57,.02-.75,.17-.43,.35-.79,.78-1.18,1.17,.23,.14,.46,.28,.79,.47-.05,.05-.19,.19-.32,.34-.15,.17-.44,.38-.4,.5,.17,.58,.2,.57-.62,.7,.08-.31,.16-.59,.24-.88-.1-.04-.18-.1-.2-.08-.48,.31-1.53-.36-1.48,.79,.04,.72,.29,1.42,.45,2.14Zm-4.93-3.79c-.39,1.31-.41,1.37,.68,1.89,.31,.15,1.15-.06,1.21-.25,.25-.9,.87-.68,1.47-.7,.28,0,.57-.15,.85-.23l-.04-.3c-.29,0-.6,.04-.88-.01-.26-.05-.53-.15-.74-.31-.55-.43-.98-.54-1.26,.26-.06,.15-.26,.25-.42,.39-.29-.25-.53-.46-.86-.74Z"/>
      <path class="cls-1" d="M42.73,48.66c-.08-.16-.13-.35-.25-.47-.22-.23-.49-.41-.73-.61,.03-.14,.05-.28,.08-.41-.42,.28-.84,.56-1.21,.81-.39-.1-.83-.22-1.3-.34,.15-1.42,.77-1.9,2.44-1.66-.1-.44-.2-.83-.29-1.24-.4,.12-.8,.24-1.1,.33,0-.57-.03-1.07,0-1.55,.05-.61,.33-.85,.89-.42-.06,.13-.19,.32-.15,.37,.29,.36,.62,.69,.94,1.03,.48-.03,1.02-.05,1.58-.08,.07-.32,.15-.67,.22-1.02,.45,.06,.93-.06,.97-.27,.09-.45-.05-.94-.08-1.32-.64,.34-1.09,.57-1.54,.81,.03-.21,.07-.42,.11-.68-.26,.08-.49,.15-.92,.27,.13-.44,.22-.73,.31-1.03,.17,0,.34,0,.52,.01h1.44c.03,.09,.05,.18,.08,.28,.27-.32,.55-.63,.9-1.04,.11,.36,.21,.66,.27,.85h1.23c0,.08,.02,.17,.03,.25-.41,.21-.83,.41-1.24,.62,.41,.82,.75,.94,1.34,.51,.81-.58,.99-.52,1.16,.74,.84-1.1,1.54-2.02,2.25-2.94-.43-.22-.72-.37-1.24-.63,1.64-.71,1.15-1.65,.41-2.47,.62-.17,1.09-.31,1.75-.49-.08,.71-.17,1.59-.28,2.57,.03,0-.18,0-.76,0,.5,.77,.89,1.38,1.29,1.99-.09,.18-.17,.35-.26,.53-.25-.16-.51-.33-.72-.46-.06,.47-.15,1.16-.24,1.85-1.19,.2-.85,1.08-.88,1.72,.5,.06,.92,.1,1.54,.17-.28-.48-.46-.8-.65-1.12,.73-.08,1.17,.25,1.17,.98,0,.54,.24,1.25-.81,1.22-.43-.01-.87,.4-1.45,.69,.66,.04,1.19,.07,1.71,.1,.01,.11,.03,.22,.04,.33-.33,.12-.65,.25-.99,.37,.22,1.44,.14,1.53-1.42,1.57,.29-.47,.6-.96,.91-1.44-.14-.12-.27-.24-.41-.36-.4,.36-.81,.72-1.33,1.18-.05-.08-.23-.35-.4-.62,.27-.16,.59-.27,.79-.48,.38-.41,.69-.89,1.09-1.42-.49-.05-.85-.08-1.12-.11,.33-.39,.61-.72,.89-1.05-.08-.08-.15-.17-.23-.25-.15,.06-.3,.11-.54,.21-.06-.19-.14-.45-.22-.72-.38,.63-.7,1.17-1.04,1.73-.8-.43-1.87-.45-2.08-.07,.47,.23,.94,.46,1.41,.68l.03-.03c-.67,1.01-1.31,.74-1.99-.16-.28,.57-.53,1.06-.78,1.56,.08,.05,.17,.1,.25,.15,.29-.26,.59-.53,.88-.79,.5,1.73,.05,2.5-1.59,2.69l.04,.04c.34-.16,.68-.32,1.02-.48-.12-.14-.24-.29-.35-.43-.32-.04-.65-.09-1.15-.15,.37-.12,.57-.19,1.06-.35-.64-.03-.99-.05-1.33-.06l.04,.03Zm-1.57-2.26c.96,.39,1.85,1.34,2.95,.49-.89-.32,.62-2.09-1.17-1.81,.09,.29,.17,.57,.29,.95-.41-.11-.64-.17-.91-.24,.06,.25,.1,.42,.14,.61h-1.29Z"/>
      <path class="cls-1" d="M141.5,47.66c.14-.64,.28-1.28,.42-1.92-.1-.02-.19-.04-.29-.06,.27-.25,.53-.5,.8-.75-.04-.09-.09-.19-.13-.28-.32,.09-.64,.19-1.18,.35,.44-.66,.78-1.19,1.12-1.72-.12-.08-.24-.15-.36-.23-.55,.84-1.1,1.69-1.75,2.67-.11-.07-.39-.33-.72-.44-.27-.09-.6,0-.9,0,.01,.21,.12,.47,.03,.61-.22,.35-.53,.64-.8,.95-.12-.04-.24-.08-.36-.12-.1-.68-.21-1.36-.27-2.04,0-.04,.37-.07,.53-.17,.34-.21,.65-.46,.97-.7-.18-.22-.34-.46-.54-.67-.18-.19-.38-.36-.61-.58-.21,.17-.48,.39-.75,.6-.09-.06-.17-.13-.26-.19,.17-.27,.34-.54,.51-.8,0,0-.03,.03-.03,.03,.68-.29,1.36-.57,2.1-.88-1.76-1.08-.17-2.14,.14-3.42-.37,.2-.6,.33-1.01,.55,.11-.64,.19-1.12,.29-1.7-.06-.05-.27-.21-.59-.47,.47-.06,.8-.1,1.16-.15-.14-.25-.28-.48-.4-.68,.52-1.02,2.52-1.56,2.95-.93-.62,.2-1.26,.41-2.06,.66,.58,.53,1.02,.94,1.52,1.38,.13-.54,.22-.9,.31-1.26,.41,.12,.82,.3,1.24,.33,.35,.03,.81,0,1.05-.2,.38-.31,.62-.79,1.04-1.37-.34,1.06-.6,1.91-.84,2.65-.49-.21-1.14-.5-1.98-.87-.13,1.19-.51,2.14,1.02,2.39,.34,.06,.59,.66,1,1.15-.86,.28-1.73,.56-2.6,.85,.11-.29,.22-.57,.33-.83,.43-.1,.85-.2,1.38-.32-.19-.24-.28-.41-.34-.4-.72,.13-1.45,.25-2.16,.44-.14,.04-.33,.49-.28,.54,.77,.79,.53,1.19-.47,1.39-.09,.02-.08,.36-.19,.51-.49,.69-.21,1.42-.16,2.13,.22,0,.44,0,.39,0,.04-.39-.03-.73,.1-.93,.42-.61,.92-1.17,1.39-1.74,.26,.09,.52,.18,.87,.31v1.29c.22,.04,.48,.09,.88,.16-.17,.39-.32,.72-.46,1.04,.06,.1,.13,.19,.19,.29,.3-.2,.59-.4,.8-.54,.47,.12,1.02,.31,1.58,.34,.1,0,.23-.71,.36-1.14,.12,.07,.27,.16,.42,.25,0,0-.03-.03-.03-.03,.29,.11,.63,.16,.86,.34,.21,.16,.3,.47,.44,.71-.3,.08-.6,.15-.9,.23l-.28-.4c-.21,.49-.43,.98-.65,1.5-.07-.05-.28-.19-.48-.34-.27-.31-.53-.62-.8-.93-.54,.48-1.07,.96-1.61,1.44,.06,.07,.13,.13,.19,.2,.26-.16,.51-.32,.71-.45,.1,.36,.18,.65,.22,.79-.2,.62-.4,1.2-.56,1.79-.07,.25-.06,.52-.09,.78-.2-.14-.39-.31-.61-.4-.17-.07-.38-.03-.57-.05-.09-.18-.17-.35-.26-.53Z"/>
      <path class="cls-1" d="M32.41,33.5c0-.16-.06-.4,.02-.47,.84-.69,.22-.8-.35-.93,.5-.46,2.05-.21,2.7,.41,.12,.11,.3,.19,.46,.22,1.21,.22,1.24,.26,1.2,1.73-1.38-.17-1.24,1.04-1.64,1.76,.09,.09,.18,.17,.27,.26,.37-.43,.75-.86,1.18-1.37,.89,1.42-.7,2.14-.77,3.13,.53,.11,1,.21,1.78,.38-.91,.7-1.55,1.2-2.38,1.84,.42-1.53,.31-1.69-.75-1.61-.15-.28-.28-.52-.41-.76-.12,.24-.23,.48-.37,.7-.11,.18-.27,.32-.47,.55,1.18,.43,1,1.35,.74,2.29-.29-.16-.57-.32-.88-.48,.13-.15,.25-.3,.38-.44-.1-.09-.21-.18-.31-.26-.22,.28-.45,.55-.65,.85-.08,.12-.07,.3-.12,.54,.71,.07,1.22,.32,.57,1.1,.27,.37,.55,.76,.84,1.16-.71-.45-1.88-.5-1.67-1.69,0-.02-.06-.08-.09-.08-1.63,.05-.18-.71-.25-1.05-1.38-.52-.05-1.15-.26-1.86,.5,.28,.83,.46,1.13,.62,.09-1.01,.18-1.98,.26-2.98-.08,.01-.44,.08-.79,.09-.19,0-.53-.09-.54-.18-.15-1.33-.97-.65-1.36-.71,.08,1.4,.16,2.66,.24,3.92-.2,.02-.39,.05-.59,.07-.04-.42,.08-1.01-.16-1.23-.64-.63-.22-1.35-.31-2.01-.1-.73,.12-1.43,1.14-1.36-.17-.54-.32-1.01-.43-1.36,.43-.29,.79-.52,1.14-.76,0,.32-.03,.64,.03,.95,.07,.38,.27,1.09,.31,1.09,1.25-.23,.94,.63,.89,1.48,.36-1.74,1.47-.82,2.37-1.05-.62-.44-1.24-.89-1.61-1.15,.16-.57,.26-.95,.41-1.48-.43,.06-.68,.1-.92,.13Z"/>
      <path class="cls-1" d="M134.78,48.91c-.39,.22-.77,.44-1.45,.83,.7,.08,1.02,.12,1.2,.14,.25,.63,.47,1.19,.73,1.85-.89,.09-1.74,.24-2.6,.25-.43,0-.86-.24-1.17-.63,.59-.17,1.19-.34,2-.58-.96-.91-1.91-.5-2.97-.56,.21-.29,.35-.68,.62-.82,.22-.11,.59,.07,1.05,.15,.2-.03,.61-.09,1.21-.18-.38-1.19-1.8-1.26-2.56-2.05,0,0,0,0,0,0,.06-.28,.12-.57,.19-.86,.51,.13,.52,.13,.41-.54-.12-.8,.45-1.1,1.45-.76,1.1,.38,1.7,.14,1.61-.68-.06-.56-.28-1.1-.4-1.65-.02-.08,.11-.19,.2-.32,.45,.35,.89,.69,1.4,1.09-.08,.15-.21,.39-.35,.63,.04,.05,.09,.11,.13,.16,.39-.23,.79-.47,1.18-.7,.05,.05,.09,.09,.14,.14-.1,.12-.18,.32-.3,.35-1.35,.34-1.67,2.06-3.1,2.31-.19,.03-.32,.44-.47,.67,.09,.07,.18,.14,.27,.21,.23-.18,.46-.36,.69-.54,.38,.36,.76,.71,1.14,1.06-.09,.34-.17,.68-.26,1.01Z"/>
      <path class="cls-1" d="M141.5,47.66c.09,.18,.17,.35,.26,.53,.63,1.15,1.55,1.37,2.67,.76,.33-.18,.58-.52,.92-.64,.43-.16,.92-.17,1.38-.25,.02-.18,.04-.36,.07-.54-.32-.1-.64-.2-.96-.29-.17-.18-.33-.35-.5-.53,.54-.32,1.08-.65,1.78-1.07-.43-.08-.68-.12-.95-.18,.07-.17,.14-.34,.32-.77,.32,.51,.59,.86,.77,1.25,.14,.32,.17,.7,.24,1.06,.2-.05,.4-.1,.61-.15-.12-.44-.12-.99-.38-1.3-.54-.63-.61-1.1-.07-1.42,.97,.31,1.8,.57,2.67,.85-.4,.47-.67,.79-1.01,1.18h1c-.47,.39-.8,.67-1,.83,.08,.35,.13,.58,.18,.81l-.26,.08c-.22-.36-.45-.71-.87-1.37-.04,.75-.07,1.21-.1,1.75-.17,.03-.52,.09-.89,.15,.03-.26,.05-.46,.07-.66-.71,2.04-2.7,2.08-4,2.68-.43-.27-.73-.46-1.03-.65-.06,.09-.13,.19-.19,.28,.16,.18,.32,.36,.57,.64-.32,.04-.59,.16-.66,.08-.32-.36-.59-.77-1.04-1.41-.22,.15-.63,.44-1.04,.72l.03-.03c-.35-.19-.7-.38-1.02-.55,.44-.6,.71-.97,.98-1.34,.09-.17,.18-.34,.27-.52h1.18Z"/>
      <path class="cls-1" d="M40.83,33.47c.14,.01,.29,.03,.43,.04-.04-.24-.02-.51-.13-.7-.16-.27-.42-.48-.7-.78,.37-.14,.61-.23,1.1-.42-.52-.12-.79-.14-1.03-.25-.16-.08-.27-.28-.4-.42,.14-.09,.28-.25,.43-.26,.68-.03,1.36-.01,2.35-.01-.55-.4-.87-.62-.96-.69,.32-.58,.62-1.13,1-1.83,.04,.22,.13,.51,.13,.8,0,.45-.06,.91-.09,1.41h.99c-.4,.28-.86,.45-1.05,.78-.18,.32-.08,.79-.1,1.03-.35,.36-.92,.68-.91,.99,.01,.48,.33,1.04,.68,1.39,.14,.14,.73-.15,1.11-.25,.16,.5,.33,1.01,.53,1.63-.26-.05-.39-.03-.47-.09-1.25-.89-1.23-.88-2,.49-.15,.27-.68,.31-.84,.58-.22,.35-.25,.82-.36,1.24,0,0,.03-.04,.03-.04-.3,.01-.6,.03-1.07,.05,.15,.83,.28,1.55,.41,2.27l.03-.03c-1.4,.24-.87-.57-.76-.91-.53-.64-.95-1.16-1.37-1.67,.49-.34,.99-.68,1.48-1.02,0,.02,.02,.05,.03,.07,.76-.67,1.51-1.35,2.43-2.16-.47-.14-.74-.21-.8-.23-.02-.39-.04-.7-.05-1.02l-.04,.04Z"/>
      <path class="cls-1" d="M121.07,42.2c-.64-.21-1.52,.37-2.1,.95-.42,.41-1.17,.49-1.77,.72,.22,.2,.45,.4,.67,.61-.28-.26-.53-.56-.85-.76-.24-.16-.56-.19-.85-.28,.1,.31,.16,.64,.32,.91,.1,.18,.35,.27,.56,.42q-1.47,.04-1.26-1.6c-.33,.16-.79,.24-.86,.44-.36,1.19-1.18,1.51-2.43,1.34,.34-.61,.65-1.19,.92-1.68-.11-.37-.23-.79-.34-1.17,.79,.26,1.4,.53,2.04,.63,.65,.1,1.32,.02,2.13,.02-.02-.26-.04-.6-.06-.86-.79,0-1.41,.03-2.02-.03-.1,0-.28-.59-.2-.65,.87-.76,.1-.84-.46-1.08,.24-.16,.51-.45,.64-.4,.25,.1,.47,.37,.6,.62,.19,.39,.28,.82,.41,1.24,.35-.25,.69-.51,1.04-.76,.14,.28,.27,.56,.41,.84,.37-.44,.73-.89,1-1.22,.72,.44,1.48,.91,2.25,1.38l.22-.28c-.02,.23-.04,.45-.06,.68,0,0,.04-.03,.04-.03Z"/>
      <path class="cls-1" d="M71.28,53.66c-.94,.36-1.88,.72-3.02,1.16,.37-.52,.66-.92,1.16-1.62-1.01,.16-1.79,.29-2.57,.42,.01,.08,.02,.16,.03,.24,.19-.03,.38-.08,.57-.07,.15,0,.29,.1,.43,.15-.09,.11-.16,.27-.28,.31-.44,.18-.9,.33-1.37,.5-.12-.56-.21-.98-.31-1.42-.41,.29-.77,.55-1.13,.8,.05-.48,.11-.95,.16-1.43-.06,.02-.13,.05-.19,.07-.17-.44-.37-.87-.46-1.33-.01-.05,.56-.23,.87-.34,.16,.45,.32,.9,.54,1.53h2.84c-.22-.84-.39-1.52-.58-2.28-.25,.13-.56,.28-.89,.45-.09-.39-.34-.82-.21-1.02,.19-.3,.84-.7,.94-.62,.8,.64,1.51,1.38,2.36,2.19-.39-.02-.66-.04-1.12-.07,.41,.31,.68,.5,.99,.73-.96,.59-.66,1.05,.23,1.39,.27-.3,.54-.6,.98-1.08,0,.65,0,1.01,0,1.36,0,0,.04-.04,.04-.04Z"/>
      <path class="cls-1" d="M155.22,42.44c.02,.29,.03,.59,.05,.88,.37-.15,.75-.31,1.08-.44-.18,.96-.86,1.19-1.8,.48-.12,.2-.24,.4-.34,.6-.38,.74-1.07,1.08-1.66,.55-.56-.5-.97-.22-1.41-.08-.99,.32-1.71-.08-1.93-1.2,.33-.08,.66-.15,.71-.16,.31-.53,.5-.85,.68-1.16,.41-.32,.82-.63,1.24-.95,1.57-.14,1.58,1.23,1.97,2.03,.52-.18,.98-.35,1.44-.51,0,0-.04-.04-.04-.04Z"/>
      <path class="cls-1" d="M154.47,41.18c-.56-.43-1.11-.86-1.73-1.33,.26-.39,.33-.96,1.03-.38,.17,.14,.77-.2,1.14-.37,.51-.23,.98-.68,1.49-.73,.9-.09,1.3-.43,1.22-1.01,.91-.8,1.65-1.45,2.39-2.09,.14,.35,.3,.74,.55,1.35-.12,.02-.38,.07-.65,.12-.13,.02-.39,.05-.39,.05,.11,1.28-1.62,.31-1.69,1.4-.04,.71-.12,1.43-.3,2.11-.07,.26-.46,.43-.7,.64,0,0,.03,.04,.03,.04,0-.08-.03-.18,0-.23,.17-.27,.55-.58,.01-.8-.41-.17-.64-.02-.43,.49,.02,.05-.32,.38-.47,.36-.84-.08-.84-.11-1.55,.42l.03-.04Z"/>
      <path class="cls-1" d="M129.05,39.07c.21-.1,.41-.26,.62-.28,.25-.03,.52,.07,.78,.11-.6,1.09,1.43,1.31,.86,2.5,.5-.31,1-.63,1.49-.94,.56,.98-1.83,.64-.82,1.91,.57-.96,1.09-.47,1.56-.02-.04,.7,.08,1.44-.19,1.99-.11,.23-1.06,.04-1.59-.1-.27,.11-.54,.21-.81,.32,0,0,.03,.03,.03,.03,.05-.51,.1-1.03,.15-1.63,.11-.06,.33-.18,.36-.19-.62-.53-1.19-1.02-1.76-1.51,.21-.25,.35-.42,.6-.72-.46,.16-.73,.25-1.03,.36,.08-.32,.13-.56,.2-.84-.44,.07-.76,.13-1.09,.19-.05-.6,1.34-.24,.64-1.15Z"/>
      <path class="cls-1" d="M100.14,31.26c.69,.54,1.25,1.24,1.94,1.42,.51,.13,1.19-.42,1.79-.68,.06-.02,.08-.13,.12-.21-1.2-.41,.68-1.7-.45-1.87,.29-.58,.52-1.05,.92-1.86-.07,.95-.12,1.6-.17,2.38,1.39-.33,1.13-1.26,1-2.13q.82,.37,.59,2.29c-.43,.15-.85,.3-1.61,.56,.81,.27,1.27,.42,1.73,.57-1.35,.63-3,.73-3.36,2.78-.28-.42-.43-.67-.61-.91-.17-.23-.32-.53-.54-.63-.29-.12-.67-.14-.97-.05-.43,.13-.81,.4-1.41,.71,.45-1.04,.76-1.76,1.03-2.37Z"/>
      <path class="cls-1" d="M73.6,42.89c-.48,.13-1.19-.38-1.41,.5-.21,.05-.53,.21-.63,.12-.48-.41-.66-.13-1.11,.15-.9,.56,.07,1.04-.4,1.73,.72-.39,1.14-.61,1.78-.95-.2,.45-.29,.65-.37,.85l.03-.04c-.43,.41-.85,.83-1.45,1.41-.13-.06-.54-.26-.95-.45,.14-.92,.26-1.83,.43-2.74,.07-.37,.25-.73,.41-1.19-.05-.04-.22-.18-.39-.31,.16-.14,.41-.41,.46-.38,.34,.24,.64,.53,.99,.84,.38-.26,1.57,.09,1.13-1.19,0-.03,.49-.23,.92-.43-.24,.48-.37,.75-.59,1.18,.51-.1,1.14-.08,1.2-.26,.51-1.42,1.24-.56,1.93-.26l-.03-.03c-.17,.13-.43,.42-.51,.38-1.27-.66-1.09,.55-1.43,1.08Z"/>
      <path class="cls-1" d="M109.6,43.86c.33,.18,.65,.36,1.16,.64,.36-.3,.88-.73,1.4-1.17,.08,.07,.25,.22,.38,.33-.6,.77-1.21,1.55-1.95,2.5h1.19c-.25,.44-.41,1.14-.72,1.21-1.23,.28-.45,1.01-.48,1.57-.02,.47,.03,1.03-.21,1.37-.17,.24-.77,.18-1.18,.26-.02-.11-.03-.21-.05-.32,.36-.06,.71-.13,.85-.15-.15-1.02-.29-1.95-.43-2.94-.46,.49-.81,.86-1.17,1.23,0,0,.04,.03,.04,.03,.24-.49,.47-.97,.71-1.46,.14-.27,.72-.75-.24-.51,.24-.87,.49-1.75,.73-2.62l-.04,.03Z"/>
      <path class="cls-1" d="M101.62,46.41c.09-.54,.19-1.07,.28-1.61-.41,.05-.82,.13-1.23,.15-.49,.03-.97,0-1.59,0,.23-.38,.67-.89,.81-1.47,.05-.21,.92-.64,.03-.93,.23-.39,.45-.78,.68-1.17,.1,.06,.19,.12,.29,.18v-1.24c.08-.02,.16-.04,.24-.06,.27,.39,.53,.78,.83,1.22,.05-.03,.26-.17,.7-.47-.22,.54-.34,.83-.48,1.17,.21,.17,.44,.35,.68,.54-.53,.37-1.03,.71-1.68,1.16,.58,.11,1.06,.21,1.54,.3-.02,.52-.09,.98-.05,1.43,.08,.91-.26,1.15-1.07,.75,0,0,.02,.02,.02,.02Z"/>
      <path class="cls-1" d="M51.57,41.95c.09-.18,.17-.35,.26-.53,.15-.15,.36-.28,.45-.47,.15-.32,.24-.67,.35-1.02,.14,.07,.29,.13,.43,.2-.16,.32-.32,.65-.65,1.31,.99-.22,1.72-.38,2.63-.58-.02-.02,.19,.22,.39,.45,.14-.15,.39-.3,.39-.45,0-.29-.16-.57-.31-1.04,.19-.23,.52-.62,.84-1.01,.09,.23,.18,.45,.27,.68,.08,.17,.17,.34,.25,.52,.18,.38,.36,.76,.58,1.2-.28,.01-.63,.03-.94,.04-.18,.4-.34,.78-.39,.88-1.29,.16-2.33,.29-3.14,.38-.43,.57-.8,1.07-1.17,1.56-.1-.06-.2-.12-.3-.18,.17-.39,.34-.78,.52-1.21-.21,.03-.52,.08-.96,.15,.19-.35,.34-.63,.48-.9Z"/>
      <path class="cls-1" d="M134.57,34.83s.3-.13,.56-.24c.26,.32,.5,.63,.93,1.15-.51-.04-.82-.07-1.13-.1,0-.12,0-.23,0-.35-.52,.22-1.03,.44-1.55,.65,0,.09,0,.18,0,.26,.62,.16,1.25,.31,2.04,.52q.35,.8-.76,2.09c.35-.14,.7-.29,1.06-.44-.05,.2-.11,.49-.21,.92,.48-.17,.88-.31,1.29-.46,.08,.1,.15,.19,.23,.29-.46,.39-.93,.79-1.3,1.11-.27-.31-.51-.84-.81-.88-.44-.05-.93,.24-1.62,.46-.85-1.06,.72-1.6,.95-2.26-.6-.44-1.49-.79-1.51-1.18-.03-.61,.52-1.26,.87-1.86,.02-.04,.43,.15,.95,.34Z"/>
      <path class="cls-1" d="M97.24,38.17c.27,.03,.54,.06,.93,.11-.19,.37-.37,.73-.55,1.11,1.46,.48,1.51-.99,2.26-1.79,.14,.9,.24,1.54,.35,2.25,.09-.01,.36-.05,.73-.09-.12,.19-.18,.27-.22,.37-.18,.41-.28,.88-.54,1.24-.67,.9-1.53,.82-2.69,.22,.79-.55,1.45-1,2.12-1.46l-.16-.3c-.52,.14-1.05,.23-1.54,.43-.87,.36-1.23-.37-1.44-.84-.11-.25,.5-.81,.79-1.23,0,0-.02-.02-.02-.02Z"/>
      <path class="cls-1" d="M121.82,39.78c-1.15-.09-.41-1.22-.9-1.67,.43-.44,.85-.88,1.44-1.49,.09,.59,.16,1.04,.22,1.5,.03,.28,.04,.56,.05,.83,.36-.07,.84-.03,1.04-.24,.81-.86,1.54-1.8,2.32-2.74,.36,.19,.69,.36,.9,.47-.23,.43-.43,.81-.66,1.23-.25-.13-.6-.31-.95-.49-.28,.62-.4,1.48-.83,1.7-.86,.43-.83,1.48-1.62,1.86-.18-.48-.13-1.21-1.01-.96Z"/>
      <path class="cls-1" d="M152.05,37.23c.35-.84,.6-1.44,.94-2.25-.08,.01,.19-.03,.46-.08,.09-.1,.18-.2,.27-.3-.31-.13-.62-.25-1.12-.45,.99-.39,1.73-.68,2.8-1.11-.4,.73-.63,1.25-.95,1.71-.29,.42-.68,.78-.92,1.05,.45,.34,1.1,.64,1.08,.85-.07,.55-.38,1.45-.71,1.51-.5,.09-1.11-.41-1.65-.7-.16-.08-.25-.3-.19-.22Z"/>
      <path class="cls-1" d="M105.59,37.42c1.23-.82,.44-2.09,.68-2.86,.85-.15,1.39-.18,1.89-.34,1.37-.45,1.75-.28,2.22,1.1,.05,.14,.13,.27,.22,.44-.24,.12-.44,.22-.67,.34-.05-.29-.1-.56-.13-.75-.56,.19-1.1,.38-1.32,.45-.61-.3-.98-.48-1.46-.72,.17,.82,.31,1.48,.44,2.14-.06,.02-.12,.04-.18,.06-.18-.22-.35-.44-.55-.69-.28,.35-.53,.64-.77,.93-.13-.04-.25-.08-.38-.13Z"/>
      <path class="cls-1" d="M140.32,47.66c-.09,.17-.18,.34-.27,.52-1.39,.36-2.96-.4-4.23,.74-.19,.17-.68,0-1.03,0,.09-.34,.17-.68,.26-1.01,1.42,.37,2.47-.24,3.55-1.11,.46-.38,1.32-.27,1.99-.4,.28-.05,.56-.15,1.06-.05-.44,.44-.88,.88-1.32,1.32Z"/>
      <path class="cls-1" d="M61.56,39.77c.38,.29,.62,.47,.93,.71-1,1.32-2.72,1.07-4.17,1.55,.24-.35,.48-.69,.78-1.12-.35-.14-.62-.24-.88-.35,.3-1.16,.49-1.17,1.54-.83,.6,.2,1.33,.04,1.8,.04Z"/>
      <path class="cls-1" d="M155.47,25.4c.35,.41,.69,.83,1.04,1.24,.1-.08,.2-.15,.3-.23v1.43c.33-.57,.57-1,.81-1.42,.14,.07,.27,.13,.41,.2-.44,.95-.87,1.91-1.35,2.96-.5-.3-.78-.47-1.16-.7-.09,.64-.17,1.18-.25,1.75-.45-.41-.42-1.93-.08-2.29,.17-.18,.26-.61,.16-.84-.23-.54-.19-1.82,.17-2.08l-.04-.04Z"/>
      <path class="cls-1" d="M39.79,25.85c.49,.15,1.1,.57,1.46,.41,.82-.35,1.02-.34,1.12,.54,.03,.31,.14,.61,.23,.98-.68-.12-1.29-.22-1.77-.31-.25,.3-.51,.61-.88,1.05,.06-.77,.09-1.27,.13-1.76-.19-.02-.38-.04-.57-.07-.14,.94-.27,1.89-.41,2.82-.43-.41-.97-.95-1.69-1.65,.63-.08,.97-.13,1.23-.16,.17-.49,.32-.93,.47-1.37,.23-.17,.46-.33,.69-.5Z"/>
      <path class="cls-1" d="M90.48,53.25c.08,.29,.16,.58,.24,.89,.31-.24,.57-.45,.83-.65,.06,.05,.12,.1,.18,.15-.32,.67-.64,1.33-.99,2.06-.1-.56-.05-1.16-.27-1.28-.31-.18-.82,0-1.23,.29,.29,.15,.58,.29,.86,.44,0,.11,0,.23,0,.34-.77,.04-1.54,.08-2.34,.12,.13-1.05,.26-2.03,.41-3.2,.65,.39,1.11,.67,1.57,.95-.05,.11-.09,.21-.14,.32,.31-.13,.62-.25,.92-.38,0,0-.04-.03-.04-.03Z"/>
      <path class="cls-1" d="M114.47,46.44c.42-.1,.84-.2,1.4-.34,.56,.66,1.66,.82,2.35,.17,.1,.03,.21,.07,.31,.1-.31,.9-.61,1.8-.92,2.7-.14,0-.27,0-.41,0-.16-.71-.31-1.42-.46-2.11-1.42,0-2.16,1.73-3.39,.93-.12-.22-.23-.45-.4-.77,.44,.04,.91,.08,1.4,.12,.04-.24,.09-.54,.15-.85,0,0-.03,.03-.03,.03Z"/>
      <path class="cls-1" d="M162.63,42.31c-.49-.54-.84-.93-1.18-1.3,.05-.01,.29-.07,.49-.11-.18-.31-.36-.62-.73-1.24,.67,.38,1.05,.59,1.42,.8,.09-.04,.17-.07,.26-.11-.29-.69-.57-1.39-.87-2.11,.25,0,.62,0,.98,0,.02-.26,.04-.52,.05-.69,.8,.33,1.54,.63,2.49,1.01-.49,.11-.82,.2-1.15,.25-1.01,.13-1.29,.77-1.15,1.76,.09,.64,.08,1.58-.61,1.75Z"/>
      <path class="cls-1" d="M161.91,27.82c.15-1.72,.01-3.45,.55-5.16v1.19c.58-.22,1.2-.44,1.82-.67,.05,.11,.1,.22,.14,.32-1.25,.27-1.76,1.13-1.95,2.33,.7-.35,1.35-.68,2-1.01,.08,.12,.17,.24,.25,.35-.75,.52-1.5,1.03-2.24,1.54,.62,.63,.7,.62,1.21-.24,.08,.23,.15,.45,.25,.76-.7,.19-1.39,.37-2.08,.55,0,0,.04,.04,.04,.04Z"/>
      <path class="cls-1" d="M67.14,45.54c-.37,.15-.75,.31-1.12,.46-.05-.12-.11-.24-.16-.36-.16,.25-.31,.5-.61,.96-.08-.18-.2-.33-.18-.46,.15-1.43-.56-.67-1.08-.44-.46,.21-.93,.4-1.6,.68,0,.02-.07,.37-.14,.71,0,0,0,0,0,0-.33-.34-.65-.67-.84-.86,.68-.6,1.41-1.25,2.12-1.88,.01,.27,.03,.62,.05,1.01,.33-.37,.61-.69,.9-1.02,.05,.21,.11,.43,.16,.64,.51-.21,1.02-.43,1.53-.64,.06,.37,.12,.75,.17,1.09,.23,.03,.51,.07,.78,.11Z"/>
      <path class="cls-1" d="M158.6,31.3c.23-.56,.37-.91,.51-1.27l.33-.05c.08,.57,.15,1.13,.26,1.94-.55-.31-.77-.43-1.11-.63-.05,.57-.09,1.01-.13,1.46-.09,.06-.18,.12-.27,.18-.26-.33-.48-.7-.79-.98-.1-.09-.46-.02-.63,.09-.45,.28-.82,.73-1.29,.89-.19,.06-.57-.49-1.07-.94h1.32c.03,.11,.07,.22,.1,.32,.19-.3,.38-.59,.6-.95,.37,.03,.83,.06,1.66,.11-.44-.52-.73-.84-1.03-1.19,.43-.47,1.09-.22,1.52,1.02Z"/>
      <path class="cls-1" d="M135.13,31.68c.26-.21,.53-.42,.78-.61,.04,.64,0,1.31,.16,1.92,.05,.19,.66,.22,.99,.36,.33,.14,.64,.32,.88,.64-.85,.16-1.77-.61-2.28,.62-.35-.84-1.88-1.15-.71-2.69-.65,.27-.97,.4-1.31,.54,.87-1.56,.97-1.61,1.49-.76Z"/>
      <path class="cls-1" d="M88.74,49.59c.16,.16,.42,.28,.47,.47,.28,.99,.88,1.44,1.91,1.24,.33,.38,.66,.75,1.12,1.28-.71,.27-1.24,.47-1.76,.68,0,0,.04,.03,.04,.04-.06-.39-.12-.78-.2-1.24-.16,.17-.31,.32-.32,.34-.76-.39-1.5-.78-2.23-1.16,.24-.41,.6-1.03,.97-1.64Z"/>
      <path class="cls-1" d="M91.64,51.02c.61-.41,1.21-.81,1.93-1.29,.2,.52,.37,.96,.62,1.59,.13-.56,.2-.98,.34-1.37,.03-.08,.31-.08,.48-.11-.16,.51-.54,.93-.06,1.57,.15,.2-.5,1-.84,1.49-.03,.04-.51-.29-.81-.38-.33-.1-.69-.13-1.07-.2,.17-.34,.29-.58,.41-.82-.38-.18-.69-.32-1-.46Z"/>
      <path class="cls-1" d="M38.42,40.96c.9,.31,1.21,.95,.94,2.02,.31-.19,.47-.29,.64-.39-.03,1.21-.23,1.34-2.59,1.66-.05-.58-.11-1.17-.17-1.8,1.08,.23,1.17-.63,1.2-1.53,0,0-.04,.04-.04,.04Z"/>
      <path class="cls-1" d="M145.91,42.99c.23-.73-.08-1.36-.26-2.05-.1-.39,.28-1.03,.63-1.38,.32-.33,.87-.42,1.4-.65-.37,.77-.75,1.56-1.16,2.41,.56,.23,1.09,.45,1.75,.72,.3-.33,.69-.75,1.08-1.16,0,0-.02-.02-.02-.02v1.93c-.96,.08-2.37-1.51-3.44,.19,0,0,.03,.03,.03,.03Z"/>
      <path class="cls-1" d="M162.95,35.09c-1.08,.57-1-.88-1.78-1-.08,.21-.15,.41-.26,.71-.18-.31-.33-.55-.59-.99,.87-.06,1.59-.11,2.36-.16-.1,.39-.16,.6-.21,.81,.2,.01,.5,.11,.58,.02,.33-.38,.58-.82,.92-1.33,1.12,.11,1.91-.41,2.1-1.5v2.58c-.68-1.02-1.05-.82-1.58-.13-.36,.46-1.02,.68-1.55,1h.01Z"/>
      <path class="cls-1" d="M64.22,49.7c.19-.76,.23-1.62,.63-2.23,.3-.46,1.08-.6,1.85-.7-2.26,.34-.69,1.81-.99,2.79,.3-.15,.48-.24,.81-.41-.17,.77-.3,1.4-.38,1.77-.68-.14-1.19-.25-1.75-.36-.03-.18-.08-.54-.13-.89,0,0-.04,.04-.04,.04Z"/>
      <path class="cls-1" d="M163.91,22.76c-.49-.19-1.21-.46-1.77-.67,.19-.42,.41-.93,.65-1.45,.52,.03,1.1,.05,1.77,.09-.11-.45-.19-.82-.28-1.18,.06-.07,.13-.13,.19-.2,.23,.19,.63,.36,.65,.57,.04,.4-.06,.85-.23,1.22-.27,.57-.65,1.09-.98,1.64Z"/>
      <path class="cls-1" d="M112.58,50.91c0-.27-.05-.75,.03-.77,1.04-.32,1.45-2.01,3.05-1.15-.14-.47-.21-.7-.32-1.07,.25,.06,.44,.05,.49,.13,.16,.23,.44,.61,.36,.74-.55,.92-1.16,1.8-1.79,2.66-.11,.15-.44,.15-.77,.25,.33-.58,.59-1.01,.84-1.44-.09-.1-.18-.2-.27-.3-.55,.31-1.1,.61-1.65,.92,0,0,.03,.03,.03,.03Z"/>
      <path class="cls-1" d="M48.78,38.1c0,.68-.01,1.28,0,1.88,0,.15,.17,.29,.2,.45,.06,.32,.21,.85,.08,.95-.32,.22-.78,.24-1.18,.35-.09-.38-.32-.79-.23-1.13,.26-1,.3-.99-.8-.83-.15,.02-.3-.03-.57-.27,.82-.46,1.64-.92,2.5-1.39Z"/>
      <path class="cls-1" d="M120.28,36.71c-.44,.32-.89,.65-1.28,.93-.17-.55-.29-.94-.41-1.34-.17-.02-.33-.03-.5-.05,.34-.35,.69-.7,1.03-1.04,.5,.5,1.03,.98,1.5,1.51,.16,.18,.29,.6,.19,.74-.51,.7-1.09,1.35-1.85,1.94,.18-.42,.31-.87,.56-1.25,.28-.43,.66-.8,1-1.19-.08-.08-.17-.17-.25-.25Z"/>
      <path class="cls-1" d="M152.09,39.09s.18-.37,.34-.69c.37,1.36-.69,1.15-1.21,1.55-.21-.27-.41-.54-.67-.88-.27,.24-.62,.54-1.03,.89-.39-.34-.79-.68-1.37-1.18,.71-.13,1.11-.2,1.56-.28-.24-.38-.4-.64-.67-1.06,.48,.11,.75,.18,1.09,.26-.03,.33-.05,.65-.07,.81,.68,.19,1.26,.36,2.04,.58Z"/>
      <path class="cls-1" d="M145.63,37.18c-.3,.49-.49,.83-.69,1.16-.13-.07-.27-.13-.4-.2,.24-.5,.36-1.25,.74-1.44,.4-.19,1.06,.19,1.61,.29,.27,.05,.58,.07,.84,0,.35-.09,.67-.28,1.16-.49-.02,.74,0,1.08-.79,1.17-.55,.07-1.03,.69-1.59,1.11v-1.29c-.31-.11-.66-.24-.88-.31Z"/>
      <path class="cls-1" d="M140.05,50.1c.43,.27,.85,.54,1.25,.79-.42,.13-.83,.29-1.25,.38-.49,.1-1.05,.33-1.47,.18-.69-.25-1.29-.75-1.92-1.17-.05-.03-.02-.27,.05-.36,.1-.13,.26-.26,.41-.3,.53-.11,1.07-.18,1.79-.29-.05,.37-.11,.85-.19,1.42,.34,.1,.77,.21,1.28,.36,.03-.44,.06-.75,.08-1.06,0,0-.03,.03-.03,.03Z"/>
      <path class="cls-1" d="M104.47,37.2c.49-.29,.75-.45,1.23-.75-.37,1.06-.67,1.94-1.05,3.04-.37-.8-1.63-1.2-.29-2.02-.9-.73-.98-1.15-.52-1.77,.41,.16,.76,.29,1.1,.42-.09,.22-.22,.52-.46,1.08Z"/>
      <path class="cls-1" d="M145.21,29.58c.17-.25,.33-.49,.5-.74,0,0,0,0,0,0,1.44-.32,1.83-.79,1.65-1.94,.76,.1,.18,2.18,1.75,1.02,.03,.43,.06,.73,.09,1.11-.54-.2-1.01-.38-1.59-.6v.91c-.67,.18-1.38,.39-2.1,.55-.07,.02-.2-.21-.3-.32,0,0,0,0,0,0Z"/>
      <path class="cls-1" d="M151.11,24.62c.23,.03,.46,.07,.74,.11-.45,1.55-.89,3.05-1.32,4.53-.2-.48-.69-1.12-.66-1.74,.03-.51,.67-.98,1.18-1.66-.01-.05-.1-.38-.19-.71l.26-.53Z"/>
      <path class="cls-1" d="M94.03,55.1c-.79,.29-1.58,.58-2.37,.87-.05-.09-.1-.17-.15-.26,.61-.42,1.21-.83,1.82-1.25-.05-.1-.11-.2-.16-.3-.29,.06-.58,.13-.87,.19-.2-1.18,.34-1.43,1.37-1.04,.1,.59,.21,1.2,.32,1.82,0,0,.04-.04,.04-.04Z"/>
      <path class="cls-1" d="M38.78,24.8c.4-1.18,1.26-1.85,2.5-2.2-.18-.34-.35-.65-.46-.87,.24-.43,.41-.76,.62-1.07,.06-.08,.36-.1,.39-.05,.08,.15,.16,.48,.11,.5-.62,.32-.38,.63-.02,.96-.28,.25,.61,1.13-.65,.99-.53-.06-1.16,.83-1.76,1.27-.23,.17-.51,.29-.76,.44,0,0,.02,.02,.02,.02Z"/>
      <path class="cls-1" d="M103.87,25.04c.06-.69,.1-1.2,.17-1.98,.38,.53,.68,.95,.97,1.35-.68,.45-1.31,.86-1.95,1.27,.27,.36,.43,.59,.64,.87-1.3,.82-.78-1.35-1.77-1.05,.28-.11,.57-.22,.93-.37-.1-.19-.24-.45-.38-.72,.06-.06,.12-.12,.17-.17,.32,.21,.64,.42,1.2,.79Z"/>
      <path class="cls-1" d="M38.19,30.31c1.01,.22-1.02,2.09,1.07,1.67q-.06,.42-2.43,1.63c.78-.93,1.27-1.73,.37-2.67,.28-.18,.66-.42,1-.64Z"/>
      <path class="cls-1" d="M161.87,27.78c.37,.61,.36,.94-.51,.82-.42-.06-.88,.14-1.3,.06-.93-.19-1.73-.07-2.29,.9-.06-.11-.12-.22-.17-.33,.68-.56,1.33-1.17,2.07-1.64,.17-.11,.67,.29,1.23,.57,.09-.4,.21-.91,.36-1.53,.24,.44,.44,.81,.64,1.18,0,0-.04-.04-.04-.04Z"/>
      <path class="cls-1" d="M125.67,35.19c.74-.54,1.49-1.07,2.42-1.75h-1.15c-.01-.07-.03-.14-.04-.21,.72-.16,1.44-.33,2.18-.5-.02,.34-.04,.8-.06,1.26-1.05,.46-2.1,.93-3.15,1.39-.07-.06-.13-.13-.2-.19Z"/>
      <path class="cls-1" d="M43.22,41.2c-.17,0-.34,0-.52-.01-.77-.49-1.55-.98-2.34-1.48,.05-.38,.12-1,.2-1.62,0,0-.03,.04-.04,.04,.38-.3,.77-.6,1.15-.9,.07,.07,.14,.15,.21,.22-.34,.49-.68,.97-1.23,1.77,1.03-.83,.4,1.73,1.58,.36,.32,.53,.65,1.07,.98,1.61Z"/>
      <path class="cls-1" d="M40.87,33.44c-.69,.45-1.44,.87-1.07,1.98-.12-.22-.23-.43-.41-.75-.75,.47-1.48,.94-2.16,1.36-.16-.69-.03-.79,.81-1.29,.66-.39,1.2-.99,1.8-1.5-.06-.11-.12-.22-.18-.34,.39,.19,.78,.38,1.17,.57,0,0,.04-.04,.04-.04Z"/>
      <path class="cls-1" d="M68.87,43.5c-.7-.73-1.16-1.22-1.63-1.71-.26,.32-.52,.64-.96,1.17-.1-.36-.2-.7-.3-1.04,.64,.22,.82-1.57,1.74-.39,.2,.26,.75,.24,1.21,.24,.11,.5,.47,1.31-.06,1.73Z"/>
      <path class="cls-1" d="M112.54,12.17c-.11,.73-.23,1.46-.36,2.35-.22-.55-.38-.96-.55-1.38-.36,.13-.7,.26-.91,.34-.12-.81-.24-1.56-.34-2.28,.57,.38,1.24,.82,1.9,1.26,.09-.09,.18-.19,.26-.28Z"/>
      <path class="cls-1" d="M68.58,46.74c-.06,.48-.13,.96-.19,1.44-.74,.27-1.49,.54-2.23,.81-.04-.07-.08-.14-.12-.22,.37-.55,.75-1.1,1.13-1.67,.42-.11,.91-.24,1.41-.37Z"/>
      <path class="cls-1" d="M43.4,50.07c-.05,.34,0,.77-.19,1-.12,.15-.61,.06-.9-.03-.36-.11-.68-.33-.79-.39v-1.99h1.22l-.04-.03c-.19,.63-.38,1.25-.58,1.93,.48-.17,.91-.31,1.33-.46l-.04-.04Z"/>
      <path class="cls-1" d="M56.88,40.02c-.08-.17-.17-.34-.25-.52h.35c-.22-.71-.43-1.4-.65-2.11,.61,.15,1.42,.34,2.22,.53-.63,.46-1.35,.67-.74,1.56-.31,.18-.61,.36-.92,.54Z"/>
      <path class="cls-1" d="M131.53,35.29c.03-.38,.06-.75,.1-1.2-.54,.41-.94,.71-1.34,1.01-.1-.09-.2-.19-.3-.28,.44-.62,.88-1.24,1.51-2.13,.33,.61,.74,1.11,.83,1.65,.05,.32-.41,.72-.65,1.09l-.16-.13Z"/>
      <path class="cls-1" d="M157.63,34.48v-.8c.55-.06,1.03,0,1.35-.18,.49-.29,.86-.77,1.45-1.03-.15,.28-.4,.55-.43,.85-.03,.32,.13,.66,.21,1-.89,.06-1.74,.11-2.59,.17Z"/>
      <path class="cls-1" d="M144.85,36.31c-.17-1.44,.2-1.82,1.69-1.81,.1,.28,.19,.59,.31,.88,.12,.28,.27,.54,.38,.95-.83-1.51-1.61-.08-2.39-.02Z"/>
      <path class="cls-1" d="M162.94,35.1c.06,.23,.09,.47,.18,.68,.09,.2,.25,.36,.38,.54,.18-.17,.36-.35,.55-.5,.21-.16,.42-.38,.65-.42,.13-.02,.46,.33,.43,.43-.08,.28-.41,.75-.47,.73-.64-.27-.9,.45-1.28,.48-.43,.03-.9-.41-1.2-.57,.34-.62,.55-.99,.77-1.38,0,0-.01,.01-.01,.01Z"/>
      <path class="cls-1" d="M159.26,43.32c-.39-.88-.74-1.67-1.08-2.45q.92-.2,1.1,.7c.02,.11,.03,.25,.1,.31q1.01,.88-.12,1.44Z"/>
      <path class="cls-1" d="M46.61,46.65c.38,.56,.32,.53,.05,1.15-.11,.25,.12,.64,.14,.96,.03,.39,.15,.91-.04,1.14-.2,.23-.73,.16-1.27,.24,.44-1.34,.79-2.43,1.14-3.52,0,0-.02,.03-.02,.03Z"/>
      <path class="cls-1" d="M100.53,26.16c.2,.14,.39,.29,.65,.47,0-.29,.11-.76-.02-.84-1.21-.74,.15-1.2,.28-1.85,.13,.3,.45,.72,.36,.88-.35,.6-.37,1.06,.08,1.63,.07,.08-.5,.67-.84,1.1-.27-.52-.46-.88-.65-1.24,.05-.05,.09-.1,.14-.15Z"/>
      <path class="cls-1" d="M39.79,25.85c-.23,.17-.46,.33-.69,.5-.19,0-.54,.02-.55-.03-.08-.31-.13-.64-.09-.95,.02-.2,.21-.37,.32-.56,0,0-.02-.02-.03-.02,.28,.55,.59,.57,1.08,.18,.45-.36,.99-.59,1.49-.88,.05,.09,.1,.17,.15,.26-.56,.5-1.12,1-1.68,1.51Z"/>
      <path class="cls-1" d="M36.22,40.95c-.31,.54-.6,1.1-.94,1.62-.1,.15-.4,.32-.52,.27-.23-.1-.53-.33-.56-.53-.06-.41,.05-.85,.16-.96,.46-.2,.9-.43,1.38-.58,.14-.04,.34,.14,.52,.22l-.03-.03Z"/>
      <path class="cls-1" d="M44.88,37.55c-.07,.29-.14,.58-.18,.73,.27,.29,.61,.48,.67,.75,.09,.38-.03,.8-.06,1.21-.47-.16-.93-.31-1.34-.45,.19-.91,.34-1.65,.5-2.39,.14,.05,.27,.11,.41,.16Z"/>
      <path class="cls-1" d="M41,18.88s.28,.08,.51,.14l.02,.44c-.76,.11-1.53,.22-2.29,.33q1.13-1.13,.39-1.59c.43-.19,.8-.35,1.16-.51,.06,.35,.12,.69,.2,1.19Z"/>
      <path class="cls-1" d="M159.22,20.34c-.91-1.03,.88-.86,.58-1.55,.61,.58,1.17,1.11,1.86,1.76-.36,.1-.66,.19-.95,.27l-1.49-.48Z"/>
      <path class="cls-1" d="M100.09,35.16c.67-.14,1.2-.26,1.69-.36,.06,.39,.11,.79,.19,1.35-.53,.06-1.27,.14-2.1,.23,.11-.6,.18-.99,.23-1.21Z"/>
      <path class="cls-1" d="M110.71,28.87c.1,.73,.19,1.46,.28,2.11-.53-.33-1.06-.67-1.73-1.08,.13-.46,.32-1.1,.5-1.73,.08,.01,.16,.02,.25,.03,.05,.3,.1,.6,.16,.92,.21-.08,.39-.15,.57-.22,0,0-.03-.02-.03-.02Z"/>
      <path class="cls-1" d="M112.47,46.71c-.11,1-.23,2.07-.36,3.23-1.28-1.63-1.06-2.68,.36-3.23Z"/>
      <path class="cls-1" d="M148.27,30.95c-.2,.24-.36,.44-.57,.7,.15,.17,.51,.45,.71,.82,.06,.11-.36,.46-.74,.6,.22-.75-1.13-1.48,.03-2.09,.29-.15,.59-.32,.9-.36,.3-.04,.62,.09,.93,.14-.06,.18-.13,.51-.18,.51-.31-.01-.61-.09-.91-.17-.1-.03-.17-.13-.18-.13Z"/>
      <path class="cls-1" d="M34.64,14.44c.31-.28,.56-.5,.8-.72,.57,1.02,.27,1.33-1.61,1.49,.41-.82,.72-1.64-.6-1.99,.28-.32,.46-.51,.69-.77,.25,.69,.47,1.3,.72,1.98Z"/>
      <path class="cls-1" d="M145.21,29.57c-.49,.13-.76,.3-.45,.9,.55,1.06-.79,1.25-.99,1.97-.09-.13-.27-.27-.26-.38,.13-.77,.23-1.57,.5-2.3,.21-.57,.71-.69,1.2-.19,0,0,0,0,0,0Z"/>
      <path class="cls-1" d="M94.76,39.8c-.15-.38-.3-.76-.45-1.13,.49-.53,1.07-1.18,1.66-1.83l.24,.16c-.25,.57-.49,1.14-.78,1.83,.03,.05,.17,.3,.31,.55-.34,.13-.68,.26-1.02,.39l.04,.04Z"/>
      <path class="cls-1" d="M152.18,33.08c-.46,.52-.94,1.06-1.65,1.86-.13-.85-.24-1.45-.28-2.06,0-.04,.58-.19,.87-.16,.37,.05,.73,.23,1.06,.35Z"/>
      <path class="cls-1" d="M132.32,36.88c-.09,.68-.19,1.4-.28,2.09-.53-.27-1.05-.54-1.46-.75,.16-.37,.35-.81,.51-1.2,.38-.04,.8-.09,1.23-.14Z"/>
      <path class="cls-1" d="M151.84,40.96c-.41,.32-.82,.63-1.24,.95,.06-.42,.11-.84,.18-1.34-.33,.35-.63,.66-.94,.99-.2-.26-.36-.48-.52-.7,0,0,.02,.03,.02,.02,.35-.28,.75-.84,1.04-.79,.52,.1,.97,.56,1.46,.88Z"/>
      <path class="cls-1" d="M36.24,4.06c1.1,.2-.31,2.02,1.14,1.52-.51,.29-1.02,.59-1.76,1.02-.93-.49,1.16-1.51,.61-2.53Z"/>
      <path class="cls-1" d="M98.04,15.38c.19,.48,.44,.86,.47,1.25,.03,.33-.17,.94-.32,.96-.4,.05-.83-.16-1.46-.32,.51-.33,.77-.5,1.03-.67-.32-.3-.64-.6-1.03-.96,.47-.1,.99-.21,1.32-.27Z"/>
      <path class="cls-1" d="M123.14,36.49c-.04-.97,.22-1.65,1.07-1.59,.3,.02,.84,.76,.78,1.07-.31,1.46-1.32-.37-1.85,.52Z"/>
      <path class="cls-1" d="M101.71,21.57c.47,.45,.97,.93,1.57,1.51-.76,.15-1.61,.32-2.54,.5,.4-.83,.68-1.43,.96-2.02Z"/>
      <path class="cls-1" d="M136.65,32.53c.38-.31,.77-.62,1.23-.99-.27-.81,.06-1.4,1.07-1.56q-.58,1.88-2.08,2.79c-.07-.08-.14-.16-.21-.24Z"/>
      <path class="cls-1" d="M110.73,28.89c.42-.77,.83-1.53,1.25-2.3,.14,.08,.29,.17,.43,.25-.32,.52-.64,1.05-.96,1.57,.17-.04,.42-.09,1-.22-.29,.65-.49,1.11-.62,1.4-.53-.35-.82-.55-1.12-.74,0,0,.02,.02,.02,.02Z"/>
      <path class="cls-1" d="M164.91,30.27c.32,1.03,.39,1.93-.9,2.49v-2.19c.22-.07,.55-.18,.9-.3Z"/>
      <path class="cls-1" d="M98.59,27.89c.52,.1,1.04,.21,1.54,.31-.42,1.01-1.49,1.32-2.36,.6-.1-.09-.21-.17-.31-.26,.12-.06,.23-.16,.36-.18,.27-.06,.54-.08,.82-.11-.02-.12-.03-.23-.05-.35Z"/>
      <path class="cls-1" d="M121.82,39.78c.88-.25,.83,.48,1.01,.96l.71,.78c-.04,.05-.07,.1-.11,.15-.35-.17-.69-.33-1.26-.6-.07,.64-.12,1.16-.18,1.73-.3-.2-.61-.4-.91-.6,0,0-.04,.04-.04,.04,1.17-.53,.94-1.51,.78-2.46Z"/>
      <path class="cls-1" d="M137.92,36.62c-.46,2.2-.22,2.11-1.77,1.66,.13-1.01,.78-1.41,1.77-1.66Z"/>
      <path class="cls-1" d="M39.03,17.98c-.97-.25-.51,2.45-2.15,.78,.03-.22,.07-.55,.12-.89,.65-.07,1.31-.13,1.96-.2,.02,.11,.04,.21,.07,.32Z"/>
      <path class="cls-1" d="M46.21,37.34s-.14,.17-.34,.35c-.1,.09-.23,.14-.35,.21-.08-.15-.21-.29-.23-.45-.08-.71-.15-1.42-.15-2.13,0-.21,.24-.42,.51-.85,.2,1.03,.35,1.79,.56,2.86Z"/>
      <path class="cls-1" d="M106.69,17.19c-.35,.05-.81,.12-1.45,.22,.13-.28,.22-.63,.32-.64,.85-.06,1.78-.33,2.47,.81-.38,.2-.73,.38-1.08,.57-.07-.26-.15-.52-.27-.95Z"/>
      <path class="cls-1" d="M32.79,24.98c.12,.57,.21,.98,.32,1.48,.2-.08,.41-.16,.63-.25,.1,.28,.2,.56,.37,1.02-.49,0-.96,.1-1.34-.04-.24-.08-.5-.53-.49-.8,.01-.39,.27-.78,.51-1.41Z"/>
      <path class="cls-1" d="M139.99,31.74c-.02,.91,.01,1.84-.84,2.53,.95-1.16-.7-1.05-.78-1.73,.56-.26,1.1-.52,1.65-.77l-.03-.03Z"/>
      <path class="cls-1" d="M107.01,29.69c.34-.74,.61-1.34,.88-1.94,.11,.03,.21,.05,.32,.08-.16,.96-.31,1.91-.49,3.01-.14,.04-.46,.15-.99,.32,.31-.41,.52-.68,.78-1.02-.23-.21-.45-.41-.49-.45Z"/>
      <path class="cls-1" d="M145.71,28.84c-.22-.56-.43-1.13-.65-1.71,.49-.36,1.08-.8,1.67-1.23l.17,.14c-.4,.93-.79,1.86-1.19,2.8,0,0,0,0,0,0Z"/>
      <path class="cls-1" d="M154.43,20.07c.23-.24,.45-.48,.93-.99,.22,.81,.48,1.38,.49,1.96,0,.2-.63,.4-.98,.6-.08-.1-.17-.2-.25-.31,.24-.4,.47-.81,.86-1.47-.47,.18-.7,.27-.94,.36l-.1-.15Z"/>
      <path class="cls-1" d="M114.5,46.41c-.39,.03-.78,.05-1.26,.09-.05-1.55,1.67-.92,1.86-2.01,.13,.12,.26,.24,.39,.36-.32,.37-.66,.74-.95,1.13-.08,.11-.05,.31-.07,.46,0,0,.04-.03,.04-.03Z"/>
      <path class="cls-1" d="M159.22,20.34l1.49,.48c.28,.25,.55,.49,.83,.74l-.12,.26c-.35-.15-.69-.36-1.05-.45-.41-.1-.85-.1-1.38-.15,.08-.32,.16-.6,.23-.88Z"/>
      <path class="cls-1" d="M161.13,37.99v1.26c-.28-.02-.52-.04-.84-.06-.09,.67-.33,1.22-1.07,.63,.23-.44,.36-.89,.65-1.17,.29-.28,.74-.41,1.26-.67Z"/>
      <path class="cls-1" d="M110.41,33.13c.64-.4,1.06-.66,1.7-1.06,.04,.65,.08,1.23,.13,2.12-.67-.39-1.19-.69-1.83-1.06Z"/>
      <path class="cls-1" d="M104.01,41.61c.07,.18,.23,.37,.19,.52-.18,.86-.41,1.71-.61,2.52-.91-.58-.76-2.04,.46-3,0,0-.04-.04-.04-.04Z"/>
      <path class="cls-1" d="M98.08,35.94l-.65,1.67c-.06,.19-.13,.37-.19,.56,0,0,.02,.02,.03,.02-.11-.16-.35-.39-.31-.49,.43-.89-.22-1.29-.88-1.76,.76-.57,1.38-.46,2,0Z"/>
      <path class="cls-1" d="M140.02,31.78c.12-.24,.23-.49,.38-.81,.25,.39,.46,.73,.68,1.08,.35-.07,.68-.14,1-.21,.03,.05,.07,.11,.1,.16-.48,.41-.97,.82-1.42,1.2-.25-.48-.51-.98-.77-1.47,0,0,.03,.03,.03,.03Z"/>
      <path class="cls-1" d="M152.36,14.73c-.18-.45-.3-.59-.29-.72,.05-.61,.14-1.21,.21-1.82,.2,.55,.46,1.09,.58,1.66,.04,.2-.26,.47-.5,.88Z"/>
      <path class="cls-1" d="M91.85,4.19c1.32,1.7,1.29,1.96-.28,3.14,.2-.22-.69-.56,.18-.78,.23-.06,.39-.75,.41-1.16,.02-.4-.2-.8-.31-1.2Z"/>
      <path class="cls-1" d="M36.25,40.99v-1.36c.82,.51,1.49,.92,2.17,1.33,0,0,.03-.04,.04-.04-.74,.39-1.49,.21-2.24,.03,0,0,.03,.03,.03,.03Z"/>
      <path class="cls-1" d="M145.83,47.23c-.1,.19-.19,.55-.31,.56-.68,.05-1.36,.03-2.43,.03,.62-.39,.96-.6,1.3-.82l.94-.29c.17,.18,.33,.35,.5,.53Z"/>
      <path class="cls-1" d="M30.52,39.48v-1.78c.08-.06,.16-.13,.24-.19,.38,.45,.76,.9,1.14,1.34-.44,.2-.88,.4-1.38,.63Z"/>
      <path class="cls-1" d="M121.13,43.82c-.09,.09-.18,.18-.27,.28-1.49-.22-1.69-.12-2.68,1.39q-.06-.55,1.74-2.37c.42,.25,.82,.48,1.21,.71Z"/>
      <path class="cls-1" d="M38.98,16.23c-.7,.25-1.39,.5-2.34,.85,.15-.48,.18-.97,.33-1.02,.62-.18,1.27-.22,1.92-.32,.03,.16,.06,.32,.1,.48Z"/>
      <path class="cls-1" d="M109.48,15.31c.13,.3,.25,.57,.37,.84-.44,.17-.94,.42-1.47,.52-.13,.02-.35-.45-.53-.69,.21-.09,.42-.19,.64-.28,.3-.12,.6-.23,.99-.38Z"/>
      <path class="cls-1" d="M29.85,29.57c-.26-.05-.62-.11-1.21-.22-.53-.36,2.15-1.34-.05-1.97,.32-.02,.78-.19,.94-.03,.25,.24,.39,.68,.43,1.06,.05,.41-.07,.84-.11,1.17Z"/>
      <path class="cls-1" d="M29.5,26.42c.42-.56,.83-1.12,1.43-1.92,.09,.82,.13,1.23,.18,1.72-.41,.15-.88,.32-1.36,.49-.09-.1-.17-.2-.26-.29Z"/>
      <path class="cls-1" d="M151.11,24.62l-.26,.53c-.42,.32-.83,.65-1.37,1.07,.18-.85,.32-1.52,.48-2.25,.31,.18,.73,.42,1.16,.66Z"/>
      <path class="cls-1" d="M152.05,15.11v2.09c-.45-.51-.82-.92-1.19-1.33,.39-.25,.79-.5,1.19-.75Z"/>
      <path class="cls-1" d="M159.49,16.77c.12-.49,.1-1.1,.4-1.44,.27-.32,.87-.36,1.55-.61-.23,.87-1.98,.44-.83,1.61-.24,.18-.48,.36-.71,.54-.13-.03-.27-.07-.4-.1Z"/>
      <path class="cls-1" d="M37.48,44.99c.28-.13,.72-.33,1.18-.54,.21,.49,.35,.84,.52,1.23,.12-.19,.22-.34,.31-.49,.05,.02,.11,.04,.16,.07-.14,.37-.27,.73-.41,1.1-.28-.23-.56-.45-.85-.68-.28-.21-.56-.42-.92-.68Z"/>
      <path class="cls-1" d="M100.55,29.92q-1.36,1.5-1.93-.12c.6,.04,1.2,.07,1.93,.12Z"/>
      <path class="cls-1" d="M144.43,34.17c.36-.57,.56-.9,.82-1.3,.18,.21,.36,.42,.48,.57,.44-.2,.86-.38,1.29-.57-.38,1.53-1.58,.73-2.59,1.3Z"/>
      <path class="cls-1" d="M122.43,34.27c1.01-.19,2.02-.38,3.03-.58l.08,.37c-1.02,.27-2.03,.53-3.05,.8-.02-.2-.04-.39-.07-.59Z"/>
      <path class="cls-1" d="M160.34,25.22c.01,.62,.74,1.53-.36,1.62-.43,.04-.9-.54-1.36-.84,.08-.11,.17-.21,.25-.32,.26,.16,.51,.31,.84,.51,.16-.26,.39-.61,.62-.97Z"/>
      <path class="cls-1" d="M112.02,39.07c-.09-.09-.18-.18-.27-.28,.32-.47,.64-.94,.99-1.45,.42,.45,.74,.8,1.08,1.16-.73,.23-1.27,.4-1.8,.57Z"/>
      <path class="cls-1" d="M94.72,39.77c.23,.14,.48,.26,.7,.42,.2,.14,.38,.3,.5,.41-.57,.29-1.08,.55-1.68,.85,.03-.25,.07-.57,.09-.89,0-.1-.01-.21-.05-.31-.07-.19-.15-.37-.22-.55,.23,.04,.46,.08,.69,.12,0,0-.04-.04-.04-.04Z"/>
      <path class="cls-1" d="M39.9,40.41c.34,.06,.69,.12,1.17,.2v1.49c-.08,.03-.37,.12-.68,.22-.15-.64-.31-1.29-.46-1.93,0,0-.02,.03-.02,.03Z"/>
      <path class="cls-1" d="M155.26,42.48c-.26-.13-.53-.27-.98-.49,.02-.08,.1-.44,.19-.81,0,0-.03,.04-.03,.04,.89,.78,1.63-.09,2.44-.23,0,0-.03-.04-.03-.04-.54,.5-1.08,.99-1.62,1.49,0,0,.04,.04,.04,.04Z"/>
      <path class="cls-1" d="M32.92,24.8c-.64-.29-1.08-.49-1.48-.68,.37-.5,.75-1.02,1.21-1.65,.09,.75,.16,1.42,.27,2.33Z"/>
      <path class="cls-1" d="M31.19,33.02c-.12,0-.31,.04-.34-.02-.69-1.18-1.42-.85-2.23,.09v-1.12c1.1-.19,2.25-.53,2.56,1.06,0,0,0,0,0,0Z"/>
      <path class="cls-1" d="M31.77,22.4c-.81-1.34,1.39-1.29,1.1-2.39,.12,.05,.24,.11,.36,.16-.34,.79-.68,1.58-1.02,2.37l-.43-.14Z"/>
      <path class="cls-1" d="M31.07,15.36c-.38,.34-.72,.86-1.17,.98-.4,.11-.91-.22-1.34-.52,.51,0,.97-1.12,1.45-.06,.3-.19,.59-.38,.89-.58,.06,.06,.11,.12,.17,.18Z"/>
      <path class="cls-1" d="M107.56,11.44c.13-.43,.23-.8,.34-1.17,.4,.21,.79,.43,1.19,.64,.1-.09,.21-.19,.31-.28v1.04c-.28-.13-.54-.33-.83-.36-.31-.04-.64,.08-1.01,.14Z"/>
      <path class="cls-1" d="M152.49,35.3c-.73,.98-1.01,1.03-1.69,.81-.18-.06-.48,.24-.82,.43,0-.17-.08-.65-.03-.67,.74-.21,1.5-.35,2.53-.57Z"/>
      <path class="cls-1" d="M108.61,32c.68-.15,1.09-.24,1.43-.32-.07,.27-.15,.58-.23,.89,.13,.08,.26,.15,.39,.23l-.97,.48c-.21-.43-.42-.86-.62-1.28Z"/>
      <path class="cls-1" d="M75.58,41.47c.39-.33,.74-.78,1.19-.95,.44-.16,1-.04,1.58,.22-.4,.15-.78,.35-1.2,.45-.53,.12-1.07,.17-1.61,.25,0,0,.03,.03,.03,.03Z"/>
      <path class="cls-1" d="M155.51,25.44c-.16-.41-1.32-.51-.35-1.27,.59,.26,1.17,.52,1.76,.77-.05,.1-.09,.19-.14,.29-.44,.06-.88,.11-1.31,.17,0,0,.04,.04,.04,.04Z"/>
      <path class="cls-1" d="M106.06,33.3c.73-.23,1.45-.45,2.17-.67,.06,.05,.12,.1,.18,.14-.28,.3-.55,.84-.85,.85-.49,.03-1.3,.81-1.5-.32Z"/>
      <path class="cls-1" d="M100.47,2.84c-.71,.72-1.19,1.2-1.66,1.68-.11-.06-.22-.12-.33-.18,.24-.5,.38-1.09,.75-1.46,.2-.2,.77-.04,1.24-.04Z"/>
      <path class="cls-1" d="M136.97,42.15c-.57-.25-1.16-.46-1.7-.77-.18-.1-.23-.43-.35-.65,.24,.01,.64-.05,.69,.05,.28,.64,1.43,.44,1.33,1.41,0,0,.03-.03,.03-.03Z"/>
      <path class="cls-1" d="M37.16,47.45c.25-.38,.5-.76,.76-1.17,.4,.19,.74,.35,1.37,.65-.76,.35-1.34,.61-1.91,.88-.07-.12-.15-.24-.22-.35Z"/>
      <path class="cls-1" d="M98.84,26.99c-.56-.67-.91-1.08-1.25-1.49,.14-.41,.3-.88,.57-1.66,.26,1.22,.44,2.05,.68,3.15Z"/>
      <path class="cls-1" d="M105.67,21.59c.32,.99,.78,.52,1.45-.17-.04,.52-.06,1.07-.08,1.07-.77,0-1.54-.04-2.59-.1,.56-.37,.82-.54,1.22-.8Z"/>
      <path class="cls-1" d="M109.94,25.59c.3-.21,.61-.43,.94-.66,.12,.34,.22,.64,.34,1h-.86c.4,.33,.62,.52,.84,.7-.03,.1-.06,.19-.09,.29-.24-.07-.58-.08-.71-.24-.21-.25-.27-.62-.46-1.09Z"/>
      <path class="cls-1" d="M103.21,12.93c-.85-.16-1.23-.83-.94-1.91,.33,.27,.65,.52,.88,.71,.02,.43,.04,.83,.06,1.2Z"/>
      <path class="cls-1" d="M36.85,18.03c-.76,.13-1.54,.45-1.7,.25-.49-.59-.41-1.18,.61-.93,.28,.07,.52,.31,1.09,.67Z"/>
      <path class="cls-1" d="M99.8,22.32c-.39-.18-.65-.3-1.16-.54,.65-.42,1.2-.77,1.75-1.12,.08,.04,.16,.09,.23,.13-.28,.51-.55,1.02-.82,1.52Z"/>
      <path class="cls-1" d="M53.72,44.58c.25-.09,.5-.18,.76-.27,.02-.18,0-.38,.06-.54,.07-.17,.21-.34,.36-.45,.07-.06,.34,0,.36,.05,.05,.15,.04,.34,.02,.51-.05,.35-.12,.7-.21,1.25-.34-.14-.84-.34-1.34-.54Z"/>
      <path class="cls-1" d="M41.07,49.69c-.87-.28-1.63-.53-2.48-.81,.24-.27,.4-.43,.31-.34,.65,.07,1.07,.11,1.68,.18,.07,.14,.27,.54,.49,.97Z"/>
      <path class="cls-1" d="M93.72,0c.21,.36,.41,.7,.61,1.04,.1,.17,.23,.33,.34,.5-.18-.04-.35-.08-.53-.1-.4-.06-.81-.1-1.18-.15,.27-.45,.53-.9,.76-1.28Z"/>
      <path class="cls-1" d="M102.07,38.37s.07,.06,.07,.08c0,.03-.05,.05-.08,.07-.02-.03-.05-.05-.07-.08,.03-.02,.05-.05,.08-.07Z"/>
      <path class="cls-1" d="M91.85,48.14c-.12,.88,0,1.85-.83,2.51-.29-.49-.5-.86-.68-1.17,.44-.37,.99-.84,1.55-1.31,0,0-.03-.03-.03-.03Z"/>
      <path class="cls-1" d="M93.41,48.05c.23,.4,.41,.71,.58,1.01-.5,.31-.91,.57-1.39,.86-.09-.13-.25-.38-.38-.56,.37-.41,.71-.79,1.19-1.32Z"/>
    </g>
  </g>
</svg>
